<?xml version="1.0" encoding="utf-8" ?>
<svg baseProfile="full" height="300mm" version="1.1" viewBox="0,0,200,300" width="200mm" xmlns="http://www.w3.org/2000/svg" xmlns:ev="http://www.w3.org/2001/xml-events" xmlns:xlink="http://www.w3.org/1999/xlink"><defs /><rect fill="#222222" height="300" width="200" x="0" y="0" /><text fill="#FFFFFF" style="font-size:12px; font-family:Arial; font-weight:bold;" x="10" y="20">Over 10km Workouts</text><text fill="#FFFFFF" style="font-size:4px; font-family:Arial" x="10" y="280">ATHLETE</text><text fill="#FFFFFF" style="font-size:9px; font-family:Arial" x="10" y="290">mchen</text><text fill="#FFFFFF" style="font-size:4px; font-family:Arial" x="120" y="280">STATISTICS</text><text fill="#FFFFFF" style="font-size:3px; font-family:Arial" x="120" y="285">Number: 7</text><text fill="#FFFFFF" style="font-size:3px; font-family:Arial" x="120" y="290">Weekly: 1.2</text><text fill="#FFFFFF" style="font-size:3px; font-family:Arial" x="141" y="285">Total: 138.7 km</text><text fill="#FFFFFF" style="font-size:3px; font-family:Arial" x="141" y="290">Avg: 19.8 km</text><text fill="#FFFFFF" style="font-size:3px; font-family:Arial" x="167" y="285">Min: 11.5 km</text><text fill="#FFFFFF" style="font-size:3px; font-family:Arial" x="167" y="290">Max: 53.8 km</text><polyline fill="none" points="65.92115935115726,66.6832677989114 65.71505248091125,66.65305882076063 65.60233778627298,66.59641691711295 65.53148854963365,66.58508852548039 64.39468034351012,66.16215930598628 64.12738549617643,66.10929279762058 63.95670324428647,66.04509764541581 62.49141221372702,65.73922502429559 60.4689885496191,65.99600715620181 60.34339217557863,65.98845476719725 58.791149809156195,66.17348783320631 55.75107347329322,66.30565371569537 55.05546278625843,66.41893836438612 54.64324904581008,66.51334196085008 53.944417938939296,66.69459615906453 52.53065362595953,67.01178876881022 50.96552958014945,67.41960365491832 50.45348282443592,67.54043679141978 50.23771469465282,67.56309295850951 48.675811068707844,67.98222942985376 47.67426049617643,68.35982559798867 48.121898854966275,69.74179317052767 48.080033396952786,69.9343581330395 47.96731870229996,70.07028571021874 47.29747137404047,70.3534664837498 46.563215648857295,70.68572903201493 45.99320133587753,70.9047185493655 44.753339694667375,71.44085957190691 43.37177958014945,71.9354613322721 42.53769083968655,72.20730057421315 42.29615935112815,72.25260691130461 42.418535305332625,72.70189161120652 42.89837786259886,75.63531607718687 42.97888835877529,75.85427493781754 43.02075381678878,76.07700756012127 43.1592318702169,76.45829235204292 43.16567270993255,76.53379380339538 43.094823473278666,76.7753973644576 43.110925572531414,76.90752361372142 43.42974713740114,77.31522435682928 43.78721374044835,77.72292039978856 43.93535305344267,77.85881803634766 43.93535305344267,77.83616846651421 43.90636927480227,77.83239353679528 43.777552480911254,77.70782063015577 43.74212786259886,77.70782063015577 43.45229007634043,77.92676665879844 43.1721135496191,78.02491443853796 42.853291984734824,78.22875895690595 42.125477099238196,78.55717265413841 42.08039122137416,78.5873714617046 42.07395038168761,78.65531868444668 42.299379770993255,78.71571610618412 42.338024809156195,78.77611342479213 42.3122614503809,78.84783510666966 42.338024809156195,78.77233859540138 42.299379770993255,78.71949094162846 42.02564408397302,78.64021931289244 41.82597805344267,78.77611342479213 41.323592557251686,78.97240399794828 41.13680820610898,79.12339600524865 40.4122137404629,79.50464795510197 40.11915553433937,79.73490704325741 39.381679389305646,80.08972958874801 38.80200381678878,80.22184345696587 38.370467557251686,80.23694215335127 38.04842557251686,80.31243553855529 37.9002862595371,80.429449967236 37.681297709918,80.76539246636821 37.58468511450337,80.87485618705614 36.72161259542918,81.1051063559753 36.647542938939296,80.90882761769535 36.58313454198651,80.82956089543586 36.512285305332625,80.82956089543586 36.17736164122471,80.93524981896917 36.10973282442137,80.93902441754835 36.07752862595953,80.98431956899003 36.11295324427192,81.05603677350518 36.20956583968655,81.13907756549088 36.28363549617643,81.18437246078611 36.40923187023145,81.23344186524264 36.48652194655733,81.31648224078162 36.45109732823039,81.35422780159206 36.41889312976855,81.35045324733073 36.48974236640788,81.31648224078162 36.467199427468586,81.28251120162531 36.35770515265176,81.19569617554589 36.19024332061235,81.13152841064948 36.10651240457082,81.05603677350518 36.08718988549663,81.01074171388245 36.11939408397302,80.93902441754835 36.58313454198651,80.82578628519332 36.66042461831239,80.9012784137085 36.75703721374157,81.12775383262488 36.92127862594498,81.0937826122099 37.16281011450337,80.99186875525993 37.613668893129216,80.85975776295527 37.913167938924744,80.42567531427994 37.787571564884274,80.20297007743648 37.71028148854384,80.00668633330861 37.668416030544904,79.75755539718375 37.68451812976855,79.36120710963951 37.60078721374157,79.03280087820895 37.446207061075256,78.73081544550223 37.365696564898826,78.73081544550223 37.30450858778204,78.67041804955079 36.92127862594498,78.90445738435665 36.512285305332625,79.11962121291799 36.141937022897764,79.25173870464278 35.720062022897764,79.34610803944088 35.43666507634043,79.36120710963951 33.88764312976855,79.57636815968362 33.49475190839439,79.64808821884435 33.17593034351012,79.65941242541885 32.45133587786404,79.75755539718375 29.90398377861129,80.13502582773435 29.459565839686547,80.23316747985155 28.657681297700037,80.35773149235683 28.348520992367412,80.41812600717822 28.219704198476393,80.47852041889564 28.06190362594498,80.51626687385215 27.884780534353922,80.52004151713845 27.656130725183175,80.48984435960301 27.153745229006745,80.38037944749885 27.057132633577567,80.32753419627625 27.450023854951723,79.44802663822702 27.479007633577567,79.25551348286535 27.43070133587753,79.21399090021805 27.29866412212141,79.1422699608338 26.567628816788783,78.95352995170833 26.16829675572808,78.80253721924964 26.274570610679802,78.76856376560681 26.471016221374157,78.84406028492594 26.564408396938234,78.82518617021196 26.545085877849488,78.9082321996575 26.554747137386585,78.8893581191769 25.975071564869722,78.77611342479213 23.71433683206851,78.2363087313206 22.74499045801349,77.78331941384022 22.471254770978703,77.69272085408011 22.458373091591056,77.59079719692454 22.41328721374157,77.60589701652134 22.158874045795528,77.59834710754149 21.356989503809018,77.52284792897626 21.005963740462903,77.53794777757503 20.75799141221796,77.62099682967528 19.70813454197196,78.1419364353169 19.466603053428116,78.24008361791857 19.067270992367412,78.27405757921224 18.8998091602989,78.2363087313206 18.767771946557332,78.23253384431155 17.540791984720272,77.44357361800212 17.318583015250624,77.31144937150384 16.15601145036635,76.36769039764113 14.84208015265176,75.48053399565833 14.590887404585374,75.27289843195467 14.552242366407881,75.19739428831235 14.532919847319135,74.89915134468174 14.500715648842743,73.6835021824445 13.090171755713527,73.94022660494738 13.0,73.85716890753974 13.238311068693292,73.13229344771753 13.734255725183175,71.68249793774521 13.8373091602989,71.5805569535878 13.937142175564077,71.54657656020936 14.420205152666313,71.53147415267449 14.536140267169685,71.50504492394975 14.84208015265176,71.19166827709705 15.093272900761804,70.76124281194643 15.15124045801349,70.53470098817343 15.109374999985448,70.03252810233244 15.080391221359605,69.85129102298015 15.048187022897764,69.82108475273708 15.051407442748314,69.99099468705754 15.073950381673058,70.09294025559939 15.10615458014945,70.11181903231773 15.070729961822508,69.88527304614763 15.1029341602989,69.75689634276205 15.595658396938234,68.79405620386751 15.885496183211217,67.45736405445496 16.107705152666313,66.87962552743556 16.11736641220341,66.77011846725873 17.51180820609443,63.96813273123189 17.55045324425737,63.83218167927771 17.77588263359212,63.431878321520344 17.89181774808094,63.09577105576682 18.17199427478772,62.472642383952916 18.378101145033725,62.295143114468374 18.529460877849488,62.11386634421069 18.593869274802273,61.996791268997185 18.600310114503372,61.70221355685135 18.46827290074725,61.373643210441514 18.4779341602989,61.25656568177874 18.577767175564077,61.11682747827581 19.118797709918,60.52387814049143 19.843392175564077,59.844051364107145 20.16865458014945,59.34550341121576 20.200858778640395,59.115111449285905 20.976979961822508,55.783702292003 20.906130725183175,55.59483748317507 20.16543416028435,54.94135744922096 19.588979007618036,54.34074952537412 18.98998091602698,53.524812957271934 18.98354007632588,53.2112767602448 18.915911259537097,52.94306888772189 18.909470419835998,52.780632143101684 19.01896469463827,52.504865725430136 18.986760496190982,52.45953405333421 18.73878816794604,52.21398648439572 18.645395992367412,52.14221071852808 18.423187022897764,52.0779901727401 18.152671755713527,51.987325673871965 18.030295801523607,51.9079940463198 17.97876908397302,51.85132848889771 17.830629770978703,51.51888871967458 17.682490457998938,51.26577906859893 17.273497137386585,50.986223016123404 16.99976145036635,50.691553428601765 16.800095419835998,50.49510567012112 16.732466603032663,50.453549273395765 16.603649809141643,50.408214966624655 16.423306297700037,50.24576655581404 16.24940362594498,49.90953374863966 15.537690839671995,48.85170177679174 15.598878816788783,48.50034342802974 15.553792938924744,48.27365876574186 15.35734732823039,48.005413367522124 15.257514312965213,47.623821329601924 15.032084923645016,47.3140108971711 14.8936068702169,47.14021360992774 14.76156965647533,47.05331464527626 14.645634541971958,46.90974197389369 14.526479007618036,46.82662068661375 14.362237595414626,46.7661687183172 13.769680343495565,46.65659926177614 13.45729961831239,46.505468418567034 13.331703244271921,46.41856789058511 13.286617366407881,46.358115223141795 13.264074427468586,46.305219054152985 13.405772900761804,45.30773359072555 13.660186068693292,44.83542949894763 13.711712786258431,44.646506091721676 13.6215410305158,44.18552873190856 14.085281488543842,43.32023529043727 14.751908396938234,42.11861355979636 15.170562977087684,41.389307452347566 15.395992366407881,41.268384774943115 15.621421755713527,41.20036558670108 15.724475190829253,41.11723084514961 16.094823473264114,40.37278828868875 16.175333969455096,40.28209370543118 16.57788645036635,39.99867162938608 16.635854007632588,39.93820795836291 16.948234732815763,39.749258318246575 17.486044847319135,39.58298179745907 18.912690839686547,39.53007546734443 19.10913645036635,39.53763351936868 19.292700381673058,39.50362227252481 19.54389312976855,39.514959358442866 21.356989503809018,39.45071582332821 21.43427958014945,39.46961099287364 22.53566316793149,39.43937871675371 22.722447519088746,39.40158833516398 24.954198473293218,39.3789140867666 27.88800095418992,39.29577505125053 28.915314885482076,39.20507769803953 31.63656965647533,39.3260074504833 31.916746183196665,39.29199599953063 31.952170801509055,39.307112204001896 33.108301526721334,38.97077512254327 33.69763835877529,38.895193314470816 34.80546278625843,38.67600515492086 35.208015267169685,38.64577219840794 35.30784828244941,38.86118144798456 35.48175095420447,38.86118144798456 35.84887881678878,38.74780832276883 35.99701812976855,38.72513365397754 36.87941316791694,39.719026281869446 36.88907442748314,39.707689261547785 37.11772423663933,40.010008556160756 37.81333492365957,40.81114215313937 39.49117366412247,42.91214193464475 39.52337786259886,42.976379164869286 39.71338263359212,43.153975604316656 39.85508110685623,43.380693163828255 40.003220419836,43.554508972629264 41.57800572519773,45.19815960474807 41.64885496183706,45.24727901985898 42.891937022897764,45.74980449174109 44.788764312979765,46.16542165438295 44.875715648857295,46.1578650223928 45.00775286259886,46.21453972283052 46.054389312979765,46.46012903936935 46.43761927480227,46.520581532018696 47.05916030534718,46.67549057166616 51.22316316794604,47.57848338744952 51.70300572519773,47.72960963473815 51.91877385495172,47.824063210606255 52.446922709918,48.1300910597638 52.68201335877529,48.31521772949782 54.01526717556408,49.641300785129715 55.69632633589208,51.45088929024132 56.6560114503809,52.47842225711793 56.92330629771459,52.780632143101684 57.023139312979765,52.920403340318444 58.159947519088746,54.24631338761537 58.43046278625843,54.58628230130853 58.72352099236741,54.884696760826046 59.32573950380902,55.583505562510254 59.53828721374157,55.79881143307648 60.066436068707844,56.422057867781405 60.22423664123926,56.57314625581057 60.4689885496191,56.85265806933603 61.032562022912316,57.50987983210871 62.001908396952786,58.582560342209035 62.20157442748314,58.83561754340553 62.44310591604153,59.06601132868309 62.65243320610898,59.30773434013463 63.90517652670678,60.48611032954068 64.0597566794022,60.67494898046061 64.07585877862584,60.66361868987951 65.72471374044835,62.461312669995095 66.63609255725169,63.496078222018696 66.74880725190451,63.579160273020534 66.96135496182251,63.851063801110286 67.0,63.934145017290575 66.85508110687078,64.33821905550576 66.3720181297831,65.39181093432126" stroke="red" stroke-linecap="round" stroke-linejoin="round" stroke-width="0.5"><title>2023-04-02 53.8km</title></polyline><polyline fill="none" points="187.0,66.53864347354829 186.97566252030083,66.55576570577614 186.92212006493355,66.55005829565198 186.89778258517617,66.56147311530367 186.7906976744125,66.52722864898169 186.3088155759906,66.4473248088616 186.08004326664377,66.38454313634429 185.82693347756867,66.29322420818062 185.68577609519707,66.2304423545138 185.58842617631308,66.20761257124468 185.36938885884592,66.11629334055033 185.04813412655494,66.0078515513269 184.82422931314795,65.91653197908818 184.76581936184084,65.88228709923715 184.56625202813302,65.8195047624904 184.42996214170125,65.76242984685814 184.25959978369065,65.71106237063577 184.16224986480665,65.67110985497129 184.13304488913855,65.64827983260693 184.0697674418625,65.62544980047096 183.17414818823454,65.4199790721359 183.09626825310988,65.4142715406233 182.85289345594356,65.3571961919115 182.39048134128097,65.28299814739876 182.31260140618542,65.25446041052419 182.20551649542176,65.24875286132738 182.16170903190505,65.23733776106747 182.11790156841744,65.19738489102747 182.098431584629,65.14030931052184 182.08869659277843,64.74077853904237 182.0546241211414,64.62662634104709 182.04488912926172,64.52388915422489 182.04488912926172,64.41544413148586 181.99621416983427,63.99878489039838 181.9280692266184,63.53075282491773 181.85505678746267,63.16545665527883 181.7333693888795,62.646046861362265 181.7041644132114,62.48051960171142 181.67009194160346,62.36636257195278 181.63115197405568,62.21795806841328 181.36343969713198,61.33893832141257 181.2660897782771,61.09349515830036 181.042184964841,60.35145082659437 180.99351000541355,60.14595980367449 180.82314764737384,59.65506138084311 180.84261763116228,59.66647767448376 180.8036776636145,59.61510433382864 180.79394267170574,59.5637309437152 180.77934018388623,59.52948198953163 180.60897782584652,59.22124041308052 180.4775554353837,58.912997056995664 180.34613304489176,58.65041797957019 180.31206057328382,58.53054449312549 180.24391563006793,58.39354589330469 180.1709031909122,58.273671830080275 180.10762574363616,58.18233902981228 179.9421308815654,57.85696465900037 179.8447809627105,57.697130908407416 179.78637101137429,57.617213853649446 179.77176852352568,57.62863058308358 179.76690102758585,57.60579712179242 179.78637101137429,57.611505488024704 179.71335857221857,57.49733804720745 179.39210383989848,57.074916393230524 179.28501892916393,56.96074780485651 179.0416441319976,56.66390833236437 178.76419686316513,56.34423320832866 176.13088155761943,53.43852688469997 176.13574905355927,53.44423569659921 176.1260140616505,53.461362128648034 176.06760411034338,53.50132378207127 176.03839913467527,53.54699420650286 175.9702541914594,53.59266459184073 175.9313142239116,53.638334938113985 175.83883180099656,53.71254916743055 175.49810708491714,54.0379488009894 175.44456462954986,54.07220127858818 174.9286100594909,54.5517336571138 174.58788534341147,54.84858487536985 174.31530557060614,55.0769308429517 174.1984856679628,55.16256032894671 174.07679826932144,55.27102414735418 171.69659275285085,56.72670143535288 171.4921579232323,56.82374517649441 171.11736073554493,56.96074780485651 170.75229853976634,57.06920796962004 170.45538128720364,57.12629217833819 170.06111411575694,57.22333519309541 169.71552190373768,57.32608642818377 168.65440778798074,57.60008875492713 168.54245538127725,57.6229222186812 168.31368307195953,57.69142255131737 167.67117360734846,57.83413129537075 167.43266630612197,57.9026313569957 167.38399134669453,57.9026313569957 167.30124391565914,57.919756358667655 167.06273661440355,57.936881354846264 166.9556517036399,57.96542300294095 166.86316928069573,57.97113133073435 166.7025419145648,58.011089608164184 166.6197944835294,58.022506253360916 166.59545700380113,58.04533953644204 166.52731206058525,58.04533953644204 166.3958896700933,58.08529775831994 166.20118983235443,58.108131014545506 166.1671173607465,58.13096426098855 165.9724175230076,58.165214112363174 165.79718766902806,58.222297149153746 165.7047052460839,58.23371374917406 164.51216873986414,58.541961027243815 164.4099513250403,58.55908582383199 164.08869659274933,58.64470972442359 164.05949161711033,58.65041797957019 164.03028664144222,58.64470972442359 163.99621416983427,58.66183448805896 163.90859924282995,58.67895924621189 163.79664683612646,58.68466749768777 163.31476473770454,58.82166535046781 163.04705246078083,58.86733122326768 162.97404002162511,58.89587237392334 162.789075175795,58.93012173458919 162.68199026500224,58.95866285167722 162.57490535423858,58.97578751462788 162.24391563006793,59.07282716749614 162.17577068685205,59.07282716749614 160.86154678204912,59.36394506785655 160.86641427798895,59.38677777722478 160.86154678204912,59.38106960078585 160.832341806381,59.40390230283083 160.71065440779785,59.43815133759563 160.44780962684308,59.495233013352845 160.3650621958077,59.523773828350386 159.27474310438265,59.77493234245412 159.1822606814676,59.78634861047976 158.89507842075545,59.8605542931291 158.71011357492534,59.89480303493838 157.663601947017,60.134543612541165 157.45429962140042,60.197332633550104 157.24499729584204,60.23158115934348 156.58301784747164,60.254413497648784 156.5343428880442,60.27153774499311 156.45646295294864,60.27153774499311 156.40292049755226,60.29437006621811 156.29096809084876,60.32291045404054 156.23255813954165,60.32291045404054 156.04759329368244,60.35715889927087 156.01838831801433,60.3628669713471 155.87723093564273,60.34574275331033 155.77014602490817,60.36857504281579 155.5900486749888,60.41423959251915 155.43915630073752,60.477028284603875 155.2687939426687,60.52269274155333 154.81124932397506,60.59118935376682 154.75283937263885,60.614021538294764 152.4213088155666,61.196238945267396 152.4213088155666,61.20194692764562 152.37750135207898,61.207654909398116 152.31909140077187,61.23619480902926 152.2412114656472,61.247610764618 152.12925905897282,61.29898253453575 152.05137912387727,61.287566589930066 147.49540292049642,62.34353113672114 147.1400757166266,62.41202541314851 143.3531638723798,62.94856087219887 142.929691725265,62.97139204873747 142.73985938346596,62.96568425551959 142.0827474310354,62.97709984135872 141.12385073013138,62.96568425551959 137.83829096809495,62.97139204873747 137.75554353705957,62.988515424749494 137.48296376422513,62.95997646169417 137.16657652784488,62.9542686672612 137.0838290968386,62.95997646169417 136.971876690106,62.9542686672612 136.87939426716184,62.95997646169417 136.36830719307181,62.94856087219887 136.139534883725,62.95997646169417 136.0713899405091,62.9542686672612 135.78420767982607,62.9542686672612 135.2244456463086,62.931437483373884 134.5624661979382,62.94856087219887 134.31909140077187,62.92572968589229 134.18766901027993,62.931437483373884 133.93942671714467,62.92572968589229 133.44780962684308,62.937145280262484 133.2531097891042,62.931437483373884 133.16549486209988,62.937145280262484 133.09248242291505,62.92572968589229 133.0,62.931437483373884" stroke="#4dd2ff" stroke-linecap="round" stroke-linejoin="round" stroke-width="0.5"><title>2023-03-05 12.4km</title></polyline><polyline fill="none" points="67.0,106.4822365556538 66.70115295919823,106.43356780704926 66.36910069172154,106.3167627043731 66.12006149115041,106.28756140531186 64.91637202151469,105.96634649760381 64.63412759415223,105.90794366539194 64.42659492694656,105.78140406717284 64.01152959259343,105.65486429315933 63.57986164483009,105.45045351761655 63.388931591034634,105.41151807981805 63.173097617167514,105.3336471542134 62.83274404302938,105.13896954896336 62.774634896195494,105.09030008264381 62.64181398920482,105.0805661862687 62.409377401985694,104.99296107196278 62.29315910834703,104.97349325734103 62.235049961542245,104.93455761561927 62.01091468098457,104.89562195727194 61.94450422746013,104.81775059063511 61.79508070711745,104.78854881096049 61.712067640241,104.73987915739417 59.15526518059778,104.11690529470798 58.997540353564546,104.1266392940961 58.80661029973999,104.09743729283946 58.723597232892644,104.1266392940961 58.52436587237753,104.11690529470798 58.31683320523007,104.05850127663871 57.98478093772428,104.03903326227737 57.793850883928826,104.01956524373963 57.66102997693815,103.99036320820596 57.528209069918375,103.98062919425865 57.46179861642304,104.01956524373963 57.453497309732484,104.0779692868091 57.40368946958915,104.11690529470798 57.34558032278437,104.1266392940961 57.24596464255592,104.08770329032996 56.648270561068784,104.11690529470798 55.00461183703737,104.3310530406161 54.92159877013182,104.39919085417932 54.65595695617958,104.43812672476633 54.1578785549209,104.5549342366503 54.04996156800189,104.5549342366503 54.00845503457822,104.52573237270553 52.01614142963081,104.73987915739417 51.97463489623624,104.78854881096049 51.991237509588245,104.79828273853491 51.94973097613547,104.83721843851527 51.83351268252591,104.8664202025684 51.534665641753236,104.90535587341583 51.09469638738665,104.93455761561927 50.84565718675731,104.99296107196278 50.63812451955164,105.0026949777166 50.571714066085406,105.01242888245179 50.51360491930973,105.0026949777166 50.41398923905217,105.02216278610285 50.314373558794614,105.01242888245179 49.52574942348292,105.12923565776873 49.42613374325447,105.13896954896336 49.38462720980169,105.1195017655482 49.260107609501574,105.1487034391248 48.72882398153888,105.17790510330087 48.56279784778599,105.20710675812734 47.90699461949407,105.26551003970962 47.55003843194572,105.25577616203373 47.13497309756349,105.29471166644362 46.91913912372547,105.28497779191821 46.82782475015847,105.30444553993584 46.74481168331113,105.30444553993584 46.68670253647724,105.26551003970962 46.47916986930068,105.3336471542134 46.0724058416381,105.34338102355832 45.8897770945332,105.36284875909769 45.80676402762765,105.35311489184824 45.682244427356636,105.3725826253285 45.64073789390386,105.35311489184824 41.60630284395302,105.45045351761655 41.15803228283767,105.47965508509515 41.000307455746224,105.54779203938233 40.62674865484587,105.54779203938233 40.236587240564404,105.60619510252582 40.15357417365885,105.63539662002586 37.455649500363506,106.12208720037597 37.33943120672484,106.17075611537439 37.223212913115276,106.27782763686264 37.165103766310494,106.28756140531186 37.03228285929072,106.3167627043731 36.98247501917649,106.2972951726988 35.87840122979833,106.56984023755649 35.795388162950985,106.58930771095766 35.753881629469106,106.56984023755649 35.355418908497086,106.64771010628465 35.27240584164974,106.70611246415501 35.230899308167864,106.70611246415501 34.80753266715328,106.8423844868812 34.54189085314283,106.91052042179945 34.36756341275759,106.95918891553447 34.30115295923315,106.96892261115863 34.26794773250003,106.95918891553447 34.077017678675475,106.9981236918029 33.944196771713905,106.9883899992783 33.8528823981178,107.01759107369435 33.76986933124135,107.00785738327977 33.661952344322344,107.05652582499897 31.852267486508936,107.55294244529068 31.702843966166256,107.58214333872456 31.39569561870303,107.6794795824826 31.22136817831779,107.71841405087616 31.03043812449323,107.79628293774294 30.465949269768316,107.91308614320587 30.175403535715304,108.02988919885684 29.859953881590627,108.06882351747481 29.677325134485727,108.12722496419883 29.32036894693738,108.19535993804311 28.955111452698475,108.30242907967477 28.7309761721408,108.34136328180466 28.407225211383775,108.43869871429342 28.124980783992214,108.50683345517609 28.06687163715833,108.51656698542502 28.000461183692096,108.55550109599426 27.784627209824976,108.59443518995977 27.444273635657737,108.68203684051696 27.253343581833178,108.7112373719865 27.15372790157562,108.70150386254682 26.813374327408383,108.70150386254682 26.73036126056104,108.65283629968326 26.4813220599317,108.60416871085181 26.315295926178806,108.65283629968326 26.282090699474793,108.72097088038572 26.190776325849583,108.83777290016587 25.92513451189734,108.99350869353657 25.858724058402004,108.97404173393443 25.825518831668887,108.91564083012054 25.825518831668887,108.93510780222277 25.842121445020894,108.92537431667733 25.89192928513512,108.92537431667733 25.842121445020894,108.99350869353657 25.72590315141133,108.99350869353657 25.659492697915994,109.01297564899869 25.518370484234765,109.10057689705718 25.360645657172427,109.1492442206727 24.86256725594285,109.2660456912854 24.721445042290725,109.3536466959631 24.60522674859385,109.36338013572822 24.547117601818172,109.39258044878807 24.43089930820861,109.41204731897597 24.148654880846152,109.53858187367587 23.99923136047437,109.53858187367587 23.941122213669587,109.56778213054349 23.874711760145146,109.52884845260996 23.80830130664981,109.56778213054349 23.741890853183577,109.577515547433 23.725288239773363,109.59698237807606 23.41813989239745,109.69431646890007 23.252113758586347,109.72351667589828 23.19400461181067,109.7429834753566 22.97817063794355,109.7916504557652 22.903458877728553,109.7916504557652 20.39646425822866,110.42431883524114 20.30514988466166,110.47298545166996 20.222136817814317,110.55085198389133 20.197232897771755,110.61898514495988 20.16402767098043,110.61898514495988 20.122521137585863,110.65791835699201 20.014604150608648,110.67738495676895 19.898385857028188,110.72605143798864 19.831975403503748,110.82338432246615 19.890084550337633,110.8817840032134 19.90668716368964,110.93045037525008 19.923289777041646,110.94991691681207 19.923289777041646,110.97911672128248 20.188931591052096,111.77724108688562 20.197232897771755,111.82590698055719 20.371560338156996,112.37096321357967 20.421368178300327,112.48776055354392 20.42966948499088,112.58509155577485 20.479477325134212,112.66295628268563 20.603996925463434,112.9744145248842 20.678708685620222,113.2664056598951 20.77002305915812,113.51946388659417 20.869638739386573,113.84065216207091 20.919446579529904,113.94771466893872 20.98585703302524,114.14237344996945 21.085472713253694,114.30783308685204 21.425826287420932,115.79695629703929 21.7246733281645,116.595038457599 21.82428900845116,116.78969158265681 21.95710991541273,117.14979876774305 22.015219062246615,117.26658998156927 22.056725595670287,117.3055203529002 22.156341275927844,117.63642783776595 22.297463489609072,117.97706664037833 22.37217524976586,118.20091430302273 23.550960799359018,120.7118634458966 23.692083013040246,120.896775569905 23.708685626392253,120.93570439031464 23.741890853183577,120.95516879428033 23.775096079916693,120.95516879428033 23.80830130664981,121.03302636856824 23.84150653341203,121.0427585606667 23.8664104535128,121.02329417541478 23.957724827021593,121.01356198121357 24.03243658717838,120.98436539242539 24.07394312066026,121.003829786001 24.049039200588595,121.01356198121357 24.115449654083932,120.99409758970432 24.198462720989482,121.05249075172469 24.347886241332162,121.31525951767253 24.364488854713272,121.38338462960382 24.46410453491262,121.58775965982204 24.489008454984287,121.61695605530986 24.588624135241844,121.70454518556653 24.65503458873718,121.80186634269194 24.837663335871184,122.21061406765511 25.93343581855879,123.71907194671803 26.041352805506904,123.80665905659407 26.21568024592125,124.020760526284 26.265488086035475,124.020760526284 26.34019984625047,124.1278110725325 26.55603382011759,124.38083913647279 26.68055342041771,124.48788925973349 26.854880860832054,124.70198912901105 26.91299000766594,124.7409163239281 27.037509607995162,124.867429592603 27.518985395814525,125.4124078191453 27.56879323592875,125.49999330159335 27.70161414294853,125.59731040561019 27.809531129867537,125.71409079320438 27.90084550343454,125.762749243906 27.917448116786545,125.78221261691215 27.942352036887314,125.908724440058 28.15818601072533,126.10335767126526 28.16648731744499,126.07416271309194 28.257801690982888,126.15201591413643 28.315910837816773,126.22986904865684 28.39062259797356,126.26879559098597 28.506840891612228,126.45369644000311 28.58985395845957,126.5218177108618 28.62305918522179,126.58020733108424 28.78078401228413,126.7651075482936 28.83889315908891,126.88188643957255 29.071329746308038,127.13490685740544 29.18754803997581,127.31007442749251 29.32036894693738,127.4365841298495 29.36187548036105,127.54363066392398 29.519600307452492,127.70906596926943 29.677325134485727,127.91342681426613 29.768639508023625,127.97181554293638 29.78524212143384,127.97181554293638 29.79354342809529,127.95235263755603 29.884857801662292,128.00100989326893 29.901460415043402,128.02047278830287 29.80184473481495,128.04966712302848 29.693927747866837,128.10805576441635 29.461491160618607,128.18590722811496 29.378478093771264,128.32214712960558 29.353574173670495,128.39999841040844 29.312067640246823,128.44865542715706 29.22075326667982,128.52650659994833 29.10453497307026,128.58489493589877 29.004919292841805,128.68220874598774 28.38232129131211,129.13958226177783 28.207993850839557,129.28555204969598 28.100076863949653,129.41205901007197 27.97555726362043,129.49964064903907 27.85103766329121,129.5580283616 27.294850115285954,129.93754758154682 27.20353574171895,130.01539748260984 27.070714834699174,130.09324731717788 26.971099154441617,130.17109708528733 26.904688700975385,130.2489467869018 26.61414296689327,130.41437718203088 26.597540353541262,130.45330193726113 26.497924673283705,130.53115139784495 26.456418139860034,130.59926962129975 26.34019984625047,130.69658128079755 26.21568024592125,130.7452370715764 26.149269792425912,130.7938928364092 26.12436587238335,130.85227971991117 26.10776325900224,130.9593222425101 26.09116064562113,130.9885156359669 26.08285933895968,131.04690239480988 25.800614911597222,131.28044905613933 25.759108378144447,131.3485667196437 25.70930053803022,131.36802889987302 25.468562644091435,131.57238154135848 25.111606456543086,131.8351199786266 24.314681014599046,132.4773663038941 24.090545734012267,132.69144740673073 23.849807840102585,132.86660429876792 23.79999999998836,132.9347207769897 23.71698693311191,133.0028372043089 23.44304381244001,133.19745528761996 23.384934665635228,133.19745528761996 20.861337432725122,135.27984277156065 20.753420445806114,135.38688009518228 20.703612605691887,135.41607207072957 20.628900845476892,135.5620318082074 20.595695618743775,135.523109234382 20.554189085320104,135.53283987940813 20.437970791652333,135.6398769059815 20.197232897771755,135.80529751804715 20.014604150608648,135.97071782992862 19.931591083761305,135.99990961850563 19.81537279015174,136.01937080574135 19.2923904688505,135.5036479412738 19.267486548778834,135.39661075472395 19.2010760953126,135.29930411247187 19.2010760953126,135.27984277156065 19.14296694844961,135.1533439543564 18.910530361230485,134.80303862135042 18.711299000744475,134.4624627014855 18.67809377401136,134.39434736483236 18.68639508067281,134.35542429245834 17.706840891594766,132.78875683274237 17.623827824689215,132.66225455868698 17.565718677913537,132.60386883453612 17.574019984633196,132.53575210908457 17.507609531079652,132.4773663038941 17.47440430437564,132.4189804612979 17.416295157541754,132.17570571467513 17.424596464203205,132.12705068744253 17.4079938508512,132.08812664695142 17.349884704046417,132.00054749508126 17.374788624118082,132.14651270145987 17.341583397326758,132.18543671702355 17.283474250580184,132.117319678895 17.25857033050852,132.05893360568734 17.217063797084847,132.00054749508126 17.19215987698408,131.92269928944006 17.084242890035966,131.81565789815795 17.034435049950844,131.69888532789628 16.984627209807513,131.62103686463524 16.644273635640275,130.9203977034049 16.611068408878054,130.9009354275695 16.577863182144938,130.83281742954568 16.50315142198815,130.7841616855294 16.386933128349483,130.65765662946797 16.287317448091926,130.60900079191924 16.287317448091926,130.5700761031767 14.336510376626393,128.58489493589877 14.236894696368836,128.50704381297692 14.178785549564054,128.47784962473816 14.104073789349059,128.40972981583036 14.045964642544277,128.32214712960558 13.506379707891028,127.75772335490183 13.489777094509918,127.71879744849139 13.514681014581583,127.67014004207886 13.506379707891028,127.66040855769097 13.431667947705137,127.6993344890434 13.282244427333353,127.55336216081196 13.190930053795455,127.4365841298495 13.124519600300118,127.37819505827065 13.066410453466233,127.31007442749251 13.016602613352006,127.212759152324 13.0,127.10571222966973 15.457186779385665,125.68489571035752 15.606610299728345,125.57784699309559 15.772636433510343,125.42213954358886 15.905457340471912,125.34428571904573 15.963566487334901,125.27616356803628 15.980169100686908,125.21777311234473 16.22920830125804,125.0328697558798 16.287317448091926,125.00367445475422 16.337125288235256,124.95501559880358 16.411837048392044,124.89662493734795 16.486548808577936,124.80903887502791 16.65257494233083,124.69225732768246 16.801998462702613,124.55601199996454 16.86840891619795,124.52681654610933 17.059338969993405,124.33217994796723 19.051652574911714,122.53177170824347 19.225980015355162,122.414987242606 19.33389700227417,122.3176667402804 19.33389700227417,122.30793468433694 21.05226748654968,121.28606302555272 21.517140661017038,121.06222294176405 21.716372021503048,120.94543659281044 21.890699461917393,120.87731115346833 21.9820138355135,120.78972122804407 22.065026902389945,120.77025678876089 22.13143735585618,120.72159567230119 22.297463489609072,120.68266676042549 22.671022290509427,120.5172186994605 22.853651037614327,120.4101639116634 24.090545734012267,119.77756487106672 24.098847040731926,119.74836788628454 24.148654880846152,119.71917089208728 24.18186010757927,119.69970622409892 24.223366641032044,119.70943855860241 24.289777094498277,119.66077687568759 24.25657186776516,119.68024155195599 24.231667947693495,119.66077687568759 24.156956187507603,119.72890322453168 23.575864719430683,120.02087271412165 23.58416602612124,120.00140811058372 23.567563412740128,119.97221119746973 23.58416602612124,119.98194350287667 23.575864719430683,119.9624788910296 23.58416602612124,119.97221119746973 23.44304381244001,119.74836788628454 23.30192159875878,119.50505931559019 23.252113758586347,119.37853860208998 23.19400461181067,119.28121485679003 23.17740199842956,119.23255294515548 23.077786318201106,119.07683465329319 23.077786318201106,119.04763744393131 22.83704842426232,118.49288868869189 22.70422751730075,118.23984427515097 22.65441967715742,118.05492675932328 22.57140661025187,117.8700088682308 22.421983089938294,117.47097424554522 22.36387394310441,117.26658998156927 22.148039969208185,116.71183038254821 22.123136049165623,116.57557312221616 22.08162951574195,116.47824638293969 21.97371252879384,116.09867110642517 21.899000768637052,115.91374924501724 21.915603381989058,115.65096490157885 21.94880860869307,115.51470605470968 21.99031514217495,115.41737818221009 22.139738662575837,115.18379086397908 22.305764796270523,115.02806565246283 22.39707916986663,114.99886714568129 22.480092236713972,114.93073726008879 22.58800922363298,114.92100441514776 22.70422751730075,114.87234017478477 22.712528823962202,114.85287447135488 22.72913143731421,114.86260732357186 22.79554189083865,114.81394305200956 23.335126825491898,114.59981994832197 23.517755572596798,114.50249109848664 23.708685626392253,114.44409373868984 23.833205226721475,114.36623053401854 23.924519600288477,114.35649762875255 23.949423520331038,114.33703181510646 23.99923136047437,114.23970268454286 24.198462720989482,114.14237344996945 24.331283627951052,114.10344172704936 24.596925441961503,113.99637940317916 24.63013066869462,113.9574476178459 24.92067640274763,113.87958399730996 25.11990776323364,113.79198734464444" stroke="#4dd2ff" stroke-linecap="round" stroke-linejoin="round" stroke-width="0.5"><title>2022-11-06 13.5km</title></polyline><polyline fill="none" points="177.69070385830128,147.0 177.71798327830038,146.93602505616218 177.72343916227692,146.89764005706093 177.7616303502873,146.83366500386546 177.81073330622166,146.69931716955398 177.86529214619077,146.60975177918226 177.87620391417295,146.5457764182902 177.89257156616077,146.52018625479832 177.89257156616077,146.48180098903322 177.91985098613077,146.44341569864264 177.9253068701655,146.37304260235396 177.95804217414116,146.27707915591236 178.0453363180859,146.123537321575 178.11626281001372,145.94440468375615 178.2472040259163,145.6757047218489 178.34540993787232,145.44538950874994 178.4654393857927,145.18948267703308 178.5199982257618,145.10631272115643 178.84735126554733,144.42815338338187 178.98920424946118,144.0890708330844 178.98920424946118,144.02509277799982 178.90736598952208,143.74998636179953 178.5199982257618,143.22536131895322 178.4927188057627,143.19976973581652 178.38905700983014,143.14218863373753 178.32358640190796,143.04622000719974 178.2472040259163,142.95664915023372 178.09443927402026,142.79670085798716 177.9907774781168,142.66234396212894 177.83255684221513,142.48320096515454 177.55430675839307,142.18889344884883 177.01417424273677,141.56188565316552 176.8013947668951,141.34435080140247 176.370379931177,140.86449171477943 176.2339828312688,140.70453783085395 175.6502032436547,140.07111625174366 175.56290909970994,139.96874445808862 175.32285020386917,139.71921247737555 175.2191884079366,139.59124695543505 175.00640893206582,139.3865015511292 174.84818829619326,139.18815377267674 174.57539409637684,138.91302512054244 174.33533520053606,138.64429358796406 174.10073218867183,138.41395131374884 173.8934085968067,138.1900065859445 173.57151144102681,137.8572871570068 173.47876141310553,137.74211461594314 173.37509961714386,137.6589343095402 173.17323190928437,137.44138526912866 173.07502599735744,137.35820454465284 173.08593776533962,137.36460306603112 173.09139364934526,137.37100158671456 173.0040995053714,137.27502370455477 172.5567170176946,136.8719149182325 172.30574635387165,136.66716020893 171.75470207023318,136.14247306801553 171.44917256641202,135.8353369968936 171.31823135053855,135.72655926027073 170.80537825485226,135.12507879357872 170.4180104911211,134.69636030181573 170.06337803133647,134.29323414138707 169.64327496362966,133.8325152032703 169.29955427185632,133.42298427968126 168.88490708812606,132.94946065453405 168.03378918470116,132.0024021596255 167.8919362007873,131.83602547027112 167.8482891288004,131.797630783949 167.77190675286693,131.75923607296136 167.7555391008791,131.7656351931655 167.73371556488564,131.79123166715 167.73917144889128,131.79123166715 167.68461260895128,131.82962635760123 167.65187730494654,131.87442013196778 167.59731846497743,131.92561297589418 167.5809508129896,131.91921387278853 167.58640669699525,131.90001655938613 167.69552437693346,131.797630783949 167.7828185208491,131.72724046164876 167.8100979408482,131.69524483323767 167.7664508688904,131.65045092469882 167.85374501280603,131.58645956861074 167.97377446072642,131.48407325648077 168.81398059616913,130.70977109697196 168.84671590017388,130.69057339545907 168.87945120412041,130.72256956123965 168.90673062411952,130.7161703294587 169.02130418806337,130.59458479536625 169.04858360803337,130.56898780932897 169.07040714399773,130.56258856111526 169.07586302800337,130.5817863037155 169.07040714399773,130.6009840401748 168.96674534806516,130.6649764504691 168.81943648020388,130.80575951221908 168.7976129441813,130.81215873443944 168.78670117619913,130.79936028934026 168.74850998821785,130.741767252508 168.69940703222528,130.70337186381948 168.64484819228528,130.62018177043865 168.606657004304,130.56898780932897 168.48117167237797,130.44740197606006 168.42661283243797,130.40900639843312 168.35568634048104,130.31941662142344 168.1865539365681,130.20422956811308 168.1047156766581,130.09544159187135 167.59731846497743,129.57709616424836 167.35725956913666,129.3019233094892 167.13902420928935,129.090743283341 167.08446536932024,129.00115153184015 166.9317006174242,128.82836706068701 166.795303517516,128.6299842745466 166.36428868179792,128.0412314867972 166.2551710018597,127.86844424255833 166.05875917800586,127.62526134947984 165.96055326607893,127.45887248448707 165.59500903831213,126.96610274581326 165.54045019831392,126.88290745427003 165.33858249045443,126.65891955566258 165.14762655060622,126.4669292605904 165.07124417464365,126.40933205188412 165.06033240663237,126.38373327465524 165.01668533467455,126.34533508825552 164.8202735108207,126.11494545220557 163.9691556073667,125.23177695839695 163.82730262348196,125.05898159711796 163.70727317556157,124.95018426164825 163.55996430767118,124.77738808670983 163.47812604770297,124.70698950194492 163.24352303586784,124.45099394955832 163.07984651596053,124.24619671861365 163.01437590800924,124.19499730131065 162.8616111561132,124.02859889226238 162.64883168024244,123.8430001205561 162.4796992763586,123.67660073205116 162.11961093259742,123.27980032159394 161.71587551684934,122.87019713606787 161.36124305709382,122.50539193672375 161.2794047971256,122.42859055851659 161.2357577251678,122.377389584919 161.07208120531868,122.2173862598429 160.8593017294479,121.98698071955005 160.56468399363803,121.69257234825272 159.560801338288,120.65573132452846 159.23344829850248,120.29091261412395 159.09159531458863,120.16290552151622 158.86790407076478,119.91969129051722 158.26775683113374,119.29885047785137 158.22410975917592,119.266848199386 158.2077421071881,119.266848199386 158.1804626872181,119.30525093149481 158.1695509192068,119.30525093149481 158.14772738324245,119.1900426611719 158.10953619523207,119.12603797063639 157.62396251957398,118.63960008315917 157.3566242037341,118.33877467212369 157.35116831975756,118.33237411500522 157.36753597174538,118.33877467212369 157.32388889978756,118.28757019607292 157.2202271038259,118.20436282897208 157.17658003186807,118.14035708317533 156.74556519614998,117.68591431747336 156.44003569235792,117.34027947862342 156.2599915204628,117.16106062730614 155.22337356116623,116.00892661097168 155.05424115725327,115.84250541767324 154.7214322334912,115.47125647073335 154.59049101758865,115.33683818001373 154.45409391765133,115.17681601125878 154.28496151376748,114.94638333564944 153.59206424624426,114.21667400240767 153.19924059850746,113.76220140708392 152.51725509896642,113.01327423912153 152.44087272300385,112.91085611922244 152.29901973909,112.75082745556574 152.16807852315833,112.57799601755687 152.0425931912614,112.4371700318843 151.91165197535884,112.2323316422262 151.97166669930448,112.21312800720625 151.77525487545063,112.09150484209749 151.420622415666,111.72023259666094 151.27876943178126,111.57940458990561 150.76046045211842,111.00328656124839 150.7168133801606,110.96487849520781 150.62406335221021,110.8624568651212 150.5258574402833,110.78564052733782 150.3130779643834,110.55519092163013 150.04573964860174,110.28633192517373 149.88206312866532,110.08148616365725 149.6911071888171,109.8702382366937 148.86181282138568,109.03164061524876 148.74723925744183,108.89080627282237 148.64357746150927,108.79478266723527 148.55628331756452,108.66675095310711 148.228930277779,108.32746558406143 148.1198125978408,108.18662958207278 148.07070964190643,108.14181805730914 147.90157723799348,108.0329899286262 147.54148889426142,107.63608566221956 147.0777387545386,107.14955425533117 146.53215035490575,106.59900078045757 146.34665029903408,106.40054421429522 145.8774442753347,105.8435819434053 145.61010595952393,105.5490940468153 145.37004706368316,105.26100665655031 145.2827529197384,105.12656539908494 145.00450283591636,104.80006394294105 144.8353704320325,104.64641558151197 144.4698262042657,104.20467434137754 144.34434087236878,103.99980773014613 144.2406790764071,103.78213618600785 144.09882609252236,103.46202953337342 143.85331131267594,102.73217995217783 143.7278259807499,102.50169928465039 143.6841789087921,102.4312744588824 143.49867885289132,102.23280404872276 143.2913552610553,102.04713758423532 143.0512963652145,101.75263097426796 142.90398749729502,101.52214652764087 142.81123746937374,101.31727071742716 142.70757567344117,100.9459315205786 142.67484036946553,100.75385861644827 142.6421050654899,100.64501702996495 142.60936976151424,100.49135798206407 142.51116384955822,100.23525869052901 142.44569324157783,99.79988737512758 142.41841382160783,99.69744660445576 142.3202079096809,99.40292841025075 142.31475202570437,99.31329214986545 142.25473730175872,99.10840876388829 142.2110902297718,98.79467971722624 142.16198727377923,98.60900256647437 142.1292519698327,98.51936511468739 142.04195782585884,98.3849086848204 141.98739898591884,98.10959219357392 141.9819431019132,98.02635672545875 141.93829602992628,97.85988544128486 141.91647249396192,97.72542752687514 141.78553127805935,97.23881540199727 141.7800753940246,97.16198154619269 141.818266582035,97.07234192284523 141.82372246601153,97.04032773902509 141.78553127805935,96.88025656263562 141.7527959740546,96.68176770807622 141.7527959740546,96.61773890463519 141.70369301809114,96.4384578897334 141.69278125010896,96.24637049090234 141.67641359812114,96.21435586436564 141.66550183010986,96.07349130374132 141.6436782941455,96.00305889884112 141.62185475812294,95.86219383987554 141.5891194541764,95.79176118577743 141.52910473023076,95.54844774169396 141.50182531023165,95.43959666947922 141.48545765824383,95.27311817526424 141.40907528228126,94.99138428174047 141.38179586228216,94.83771068872011 141.33814879035344,94.63281194960291 141.3054134863778,94.54957163602376 141.31086937035434,94.51755609991233 141.29450171833741,94.46633120642582 141.2781340663787,94.325462522811 141.2781340663787,94.11415887434123 141.23448699439177,93.94767668532222 141.20720757442177,93.9028544782268 141.17992815445177,93.81961314719592 141.15264873442356,93.58269487767393 141.11445754647139,93.47384022250844 141.06535459050792,93.24972707235065 141.0489869385201,93.08964573586854 141.0489869385201,93.03201634968718 141.03807517053792,93.00640327130168 141.01079575053882,93.0" stroke="#4dd2ff" stroke-linecap="round" stroke-linejoin="round" stroke-width="0.5"><title>2022-10-15 12.4km</title></polyline><polyline fill="none" points="66.79731485492084,174.19291560633428 66.34517106972635,174.14721181798086 65.65915980943828,173.8455662024644 64.9965352966683,173.644468534505 64.91078388915048,173.644468534505 64.97314854915021,173.68103178202728 64.74707665655296,173.65360934782802 63.024252923351014,172.96804563606565 63.03204850581824,172.9314820837535 63.0476396708691,172.96804563606565 62.97747942834394,172.95890474944463 62.36942399304826,172.7029595277345 61.43395409270306,172.50185917337512 61.22347336506937,172.39216787168698 60.47509744478157,172.31904025911354 60.06972715459415,172.21848968970153 59.62537895195419,172.06309312268422 59.18882633172325,172.06309312268422 59.11866608922719,172.01738819629827 58.253356431319844,171.94426026325527 57.933737548737554,171.98996522869857 57.62970983108971,171.94426026325527 54.69077522738371,172.37388597441895 53.65396275441162,172.49271823695017 53.287570376793155,172.5567047714576 52.936769164167345,172.6755367799924 52.82763100913144,172.62983218084264 52.51580770898727,172.7121004416913 52.0168904287566,172.73952317773364 51.42442615851178,172.87663672598865 50.715028150734724,172.8949185158126 50.08358596795006,173.0046091727272 49.57687310525216,173.0411726937964 48.15028150714352,173.07773619919317 48.165872672136175,173.1142996889903 48.17366825466161,173.0868770731031 48.11130359463277,173.07773619919317 47.76050238200696,173.13258142802079 47.168038111703936,173.1142996889903 46.404071026452584,173.16914489437477 45.91294932871824,173.1417222960663 44.15114768297644,173.15086316312227 41.414898224320496,173.39766620486625 41.04850584670203,173.47993372721248 40.81463837157935,173.59876445311966 40.16760502383113,173.7450174275582 39.9181463837449,173.7450174275582 39.37245560847805,173.8547069943088 38.41359896061476,174.11064876971068 37.36899090514635,174.32088608376216 36.28540493719629,174.62253002305079 35.78648765699472,174.68651496435632 35.38891294936184,174.8053440140211 35.39670853182906,175.09784558691172 35.34213945432566,175.17097082384134 35.33434387182933,175.3355023783879 35.46686877438333,175.9113603271544 35.94239930706681,177.31899677108595 35.99696838457021,177.86742028425942 36.05933304462815,178.15077105525415 36.121697704686085,178.25131465162121 36.2074491121748,178.29701624724112 36.43352100474294,179.19276259313483 36.96362061495893,180.84712659552315 37.00259852752788,181.14874752370815 37.43915114767151,182.50145860827615 36.85448245998123,182.66597606524738 36.16067561713862,182.89447200846917 35.55262018190115,183.16866633485188 35.12386314419564,183.41544047732168 34.78865309659159,183.53425740316015 34.648332611541264,183.62565492614522 34.624945864023175,183.8907071907597 34.72628843653365,184.07350137762842 34.7652663490735,184.45736789889634 34.913382416649256,184.90520999715955 35.03031615418149,184.96004764403915 35.23300129926065,184.923489216686 36.65959289734019,184.411669593821 36.97141619748436,184.411669593821 37.259852750139544,184.24715549341636 37.35339974015369,184.25629517397465 37.509311390225776,185.13369996058464 37.53269813771476,185.79174764632626 37.61065396279446,186.29441955246875 37.77436119533377,186.56860298391985 37.89129493289511,186.82450672732375 38.047206582908984,187.65618860813993 37.82113469034084,186.6051607084155 37.7042009527795,186.4680691610556 37.61844954526168,186.31269847523072 37.48592464270769,185.62723619932513 37.43915114767151,185.56325944007403 37.22867042012513,185.4535848843734 37.35339974015369,185.4078871113379 37.51710697275121,185.38046843578195 37.42355998267885,184.81381384095585 37.38458207016811,184.77725535112404 37.127327847556444,184.79553459799354 36.94023386746994,184.87779116055026 36.83889129493036,184.81381384095585 36.846686877455795,184.62188159514335 36.76093546993798,184.52134548500908 36.70636639237637,184.50306617958995 36.542659159807954,184.5670437315348 36.29320051969262,184.47564721410163 34.06366392376367,185.2890727872218 33.79081853615935,185.33477062371094 33.14378518841113,185.59067805702216 32.2005197055114,185.88314275800076 32.02122130792122,185.98367726806464 31.397574707661988,186.15732750728057 30.009961022093194,186.7239732050948 29.129060199222295,186.98901587253204 28.591165006480878,187.21750027176313 27.06323083586176,187.61963133266545 26.75140753571759,187.72016380262357 26.58770030317828,187.82983545332536 26.221307925501605,187.88467122595466 26.190125595516292,187.79327825203654 25.81593763534329,188.241102891654 25.488523170206463,188.83515236872336 25.075357297522714,188.97224012394872 24.708964919875143,189.30124984056602 24.358163707249332,189.33780639766337 24.233434387191664,189.41091946499364 24.132091814652085,189.7582056818719 23.97618016458,191.0833638239783 24.046340407105163,191.25700371519633 24.05413598960149,191.54031014983775 23.983975747105433,191.71394911393872 23.828064097033348,191.89672659032658 23.867042009544093,192.47247308955411 23.750108272011857,192.86544069844967 23.274577739299275,193.2584065030387 22.752273711550515,193.89811441870552 22.44045041143545,194.12658037272195 22.12862711129128,194.5835104512662 21.980511043744627,194.71145043608703 21.645300996111473,195.25976249085943 21.07622347335564,195.68013268744107 20.748809008218814,195.77151723962015 20.48375920311082,195.96342448155337 20.148549155477667,196.2467153380494 19.891294932895107,196.56655872663396 19.665223040268756,196.68535739511572 19.47033347771503,196.89553925085784 19.252057167643216,196.83157091461908 19.111736682563787,196.8589859217027 18.909051537455525,196.82243257696973 18.644001732347533,196.65794233241468 18.48029449977912,196.39292960683815 18.40233867475763,195.79893258622178 18.215244694671128,195.45167088018206 18.043741879606387,195.28717800139566 17.607189259462757,195.08613072022854 17.412299696850823,194.9307756795315 16.648332611541264,194.10830311884638 16.31312256390811,193.85242115472647 16.18839324385044,193.58739974257333 16.180597661354113,193.45031937977183 16.071459506289102,193.2675452212061 16.016890428756597,192.93855075218744 15.962321351253195,192.3993626376905 15.977912516245851,191.47633781107288 15.899956691195257,190.1694638528861 15.67388479859801,188.85343074877892 15.385448246030137,187.74758172847214 14.777392810734455,186.175606459321 14.340840190561721,185.09714160743897 13.919878735410748,183.38802116328588 13.740580337849678,181.93478494619194 13.810740580345737,181.3772475189544 13.77955825033132,180.71002582208894 13.888696405367227,179.12878102232207 13.873105240345467,178.42498058517958 13.771762667834992,177.41954134503612 13.724989172798814,177.39212010931078 13.748375920346007,177.27329465294315 13.561281940259505,176.304404002738 13.19488956258283,175.07042360693595 13.01559116502176,174.8967508629794 13.070160242554266,174.74135916162777 13.0,174.44885636973777 13.046773495036177,174.35744904215244 13.366392377647571,174.30260459870624 13.467734950216254,174.4031527181287 13.58466868774849,174.43971564138337 14.00563014295767,174.2843231097213 14.255088783043902,174.24776012008806 14.535729753144551,174.47627854895836 15.47899523601518,174.1563525775855 15.59592897357652,174.17463409392803 15.67388479859801,174.06494493742503 15.860978778684512,173.97353719954845 15.946730186231434,174.02838185399742 15.98570809874218,174.25690086898248 16.032481593778357,174.2934638546867 16.928973581641912,174.01010030645557 17.427890861872584,173.90955172494432 17.864443482016213,173.71759501394263 18.42572542227572,173.58962363388855 19.34560415762826,173.2514126364622 20.756604590744246,172.8309322343266 21.11520138589549,172.7029595277345 21.302295365952887,172.59326848394994 21.949328713759314,172.42873165457422 22.1598094413348,172.32818121409218 22.954958856658777,172.10879802464478 23.672152446961263,171.8528502590416 27.554352533567,170.69193470665778 28.73928107408574,170.46340616685484 29.47986141187721,170.26230054673943 29.682546556956368,170.2440181941929 30.99220441750367,169.9057939670529 31.3741879601439,169.86008788782783 32.04460805543931,169.65898084903893 32.54352533566998,169.58585089952248 33.003464703360805,169.43959081284993 34.49242096146918,169.0922221045912 35.55262018190115,168.97338511732232 36.70636639237637,168.99166774150945 37.94586401039851,168.93681985724834 38.11736682546325,168.8454066386912 38.249891728017246,168.88197193782253 38.756604590744246,168.7539933224034 39.12299696836271,168.71742796852777 39.879168471175944,168.4706114209912 40.604157644032966,168.31520804412867 41.11866608922719,168.14152158286743 42.249025552213425,167.83985478546674 42.41273278472363,167.72101605795615 43.44954525772482,167.4284892559299 43.62884365528589,167.32793293663417 43.68341273278929,167.35535739909392 44.166738847998204,167.25480099381093 45.195755738415755,166.92570647708635 45.226938068459276,166.9714141245713 45.34387180599151,166.92570647708635 45.53876136854524,167.02626326933387 45.69467301861732,167.04454630977125 46.66132524906425,166.78858338801365 46.90298830662505,166.633176954565 47.503248159366194,166.58746912627976 47.908618449553614,166.49605339642585 48.05673451712937,166.40463756884128 48.10350801210734,166.29493844675744 48.282806409697514,166.15781434625387 48.87527067994233,165.9932651354393 49.08575140754692,165.97498187022575 52.36769164138241,165.03338842820813 52.5002165439364,165.03338842820813 52.508012126461836,165.06081362648547 52.54699003897258,165.01510495779075 52.82763100913144,164.95111278051627 53.16284105673549,164.78656124766712 53.39670853182906,164.75913596141618 54.145084452145966,164.46659902736428 54.41013425725396,164.41174824080372 54.77652663490153,164.17406109250442 54.815504547412274,163.991224375015 54.92464270244818,163.82667099502578 55.15851017757086,163.8083872665884 55.73538328282302,163.60726599577174 56.03161541794543,163.45185378070164 56.24989172804635,163.269015518963 56.46037245559273,163.205022034992 56.569510610657744,163.1044607491349 56.639670853182906,163.12274462806818 56.779991338262334,163.2964412831352 57.00606323083048,163.22330589242483 57.1463837158808,163.269015518963 57.23993070592405,163.56155655007024 57.45041143355775,163.81752913132368 57.442615851032315,163.97294068178599 57.520571676053805,164.18320291813143 57.68427890862222,164.38432283434668 57.699870073614875,164.78656124766712 58.04287570377346,165.2436480570541 58.08185361628421,165.35334852777305 58.07405803381698,165.9932651354393 58.12862711129128,166.13953111624141 58.30012992635602,166.32236324046244 58.31572109137778,166.42292074220313 58.198787353845546,166.64231851728982 58.4794283239753,167.41020629760897 58.658726721507264,167.75758183787548 58.767864876572276,167.8947033732402 58.69770463404711,168.20551137279108 58.7210913815361,168.34263218997512 59.01732351665851,168.6442972138757 59.048505846672924,168.86368929020682 59.001732351694955,169.06479819909146 59.01732351665851,169.24762406952505 59.13425725421985,169.4213082844508 59.2823733217665,169.49443837466242 59.32135123430635,169.6224158820769 59.27457773927017,169.6772633266446 59.1498484192125,169.69554580035765 58.978345604176866,169.58585089952248 59.00952793416218,169.4761558579703 59.12646167172352,169.4304495491233 59.26678215674474,169.49443837466242 59.32914681680268,169.58585089952248 59.26678215674474,169.6772633266446 59.19662191424868,169.69554580035765 59.02511909918394,169.6406983675406 58.95495885665878,169.57670965141733 58.978345604176866,169.4761558579703 59.11087050673086,169.4304495491233 59.32914681680268,169.52186214238463 59.40710264185327,169.86922910562134 59.336942399299005,169.97892364302243 59.17323516673059,170.00634725537384 59.13425725421985,169.9423588128484 59.19662191424868,169.78695811025682 59.32914681680268,169.73211073604762 59.40710264185327,169.8143817841701 59.32914681680268,169.98806484810484 59.23559982678853,170.02462965873565 59.14205283674528,169.960641229889 59.19662191424868,169.8143817841701 59.32135123430635,169.73211073604762 59.42269380684593,169.8052405605049 59.38371589433518,169.9423588128484 59.10307492420543,170.09775923306734 59.03291468168027,170.2714417215393 59.07968817668734,170.966168148414 59.11866608922719,171.13984887339757 59.22000866176677,171.14898995441035 59.25898657424841,171.4415040311651 59.20441749677411,171.67917098190082 59.25898657424841,171.87113226769725 59.39930705932784,171.93511926722567 59.516240796860075,172.09051606675348 60.21004763964447,172.18192581697076 60.45950627975981,172.26419450862886 60.8570809874509,172.27333546950103 61.24686011261656,172.43787259783858 61.722390645270934,172.5292819768074 62.252490255545126,172.72124135466584 62.51754006065312,172.74866408778325 62.63447379815625,172.86749582961056 62.8605456907535,172.95890474944463 62.96188826332218,172.8949185158126 63.180164573393995,173.02289093520812 64.13122563881916,173.4433703937175 64.94976180163212,173.70845420740807 65.02771762668272,173.7724398324499 65.3161541793088,173.7998622285304 65.63577306192019,173.97353719954845 66.1190991771582,174.02838185399742 66.31398873974103,174.10150800522388 67.0,174.1563525775855" stroke="#ffc500" stroke-linecap="round" stroke-linejoin="round" stroke-width="0.5"><title>2022-10-05 21.1km</title></polyline><polyline fill="none" points="142.23207046365133,155.4638477784465 142.13121182867326,155.56240100499417 142.01354342116974,155.60182228081976 142.16483137372416,155.48355842799356 142.28249978122767,155.44413712683308 142.5178365962347,155.109055726949 142.61869523132918,154.8528165985772 142.61869523132918,154.7739737182419 142.6691245487891,154.75426299283572 143.52642294642283,155.08934503736964 144.75353633926716,155.30616250648745 145.27463928685756,155.3455838371301 145.42592723935377,155.3455838371301 145.94703018700238,155.4638477784465 146.8379481297452,155.42442647308053 147.5103390297736,155.44413712683308 147.64481720980257,155.56240100499417 147.64481720980257,155.68066480728157 147.5439585748245,156.2916932446824 147.5775781198754,156.6661935444281 147.52714880235726,157.3166396261513 147.5775781198754,158.0262145538436 147.5439585748245,158.22331821598345 147.56076834729174,158.4401320009929 147.61119766480988,158.5583939581702 147.77929538983153,158.6569455312565 148.36763742752373,158.73578675178578 149.25855537020834,158.79491764503473 149.56113127525896,158.79491764503473 150.36800035537453,158.63723522082728 150.77143489551963,158.5386836372636 151.1244401180884,158.42042166745523 151.41020625067176,158.26273892313475 151.96492874325486,157.90795225545298 152.015358060773,157.80940028227633 152.5364610083634,157.45461274260015 152.97351509344298,157.04069308371982 153.17523236351553,156.92243015345593 153.3097105435445,156.784456638954 153.47780826862436,156.52821983824833 153.61228644865332,156.27198268150096 153.72995485609863,156.17342983413255 153.88124280865304,156.01574516878463 154.13338939624373,155.85806036859867 154.50320439127972,155.50326907541603 155.0411171114538,155.0696343456948 155.69669823907316,154.37975881095917 155.9656545991893,154.22207261210133 156.52037709171418,153.729302371823 156.72209436178673,153.6701698545221 156.80614322429756,153.68988069571787 156.89019208675018,153.74901320673234 157.2263875368517,154.18265104136663 157.81472957448568,154.7739737182419 158.05006638955092,155.08934503736964 158.60478888225043,155.64124354835076 158.8905550147756,156.01574516878463 159.46208727988414,156.50850930032902 160.48748340259772,157.73055866573122 161.36159157275688,158.57810427702498 162.35336815047776,159.70158896817884 162.87447109812638,160.19434325282054 163.10980791319162,160.54912552260794 163.395574045775,160.90390711002692 165.07655129610794,162.75664431329642 165.24464902107138,162.9734527698165 165.90023014874896,163.663296163184 166.90881649893709,164.8458788354328 169.0940869244514,167.28985900053522 170.32120031717932,168.7286386332271 170.57334690477,168.96514927971293 171.36340621236013,169.8323523892759 172.13665574754123,170.8375145289756 172.74180755775888,171.40907487175718 173.1956714153057,171.92150677701284 174.01935026800493,172.7886959896132 175.14560502575478,174.10918082474382 176.65848455106607,175.7252837310516 177.54940249375068,176.75012214141316 178.15455430391012,177.38078910282638 178.65884747897508,178.01145390850434 179.83553155424306,179.27277705252345 180.02043905179016,179.52898226250545 180.0708683692501,179.6275226331345 180.0708683692501,179.94285146558832 179.90277064422844,180.79029503224592 179.93639018927934,180.9085426623642 180.00362927926471,181.00708229624433 181.19712312699994,181.73627395111544 182.03761175222462,182.30780053096532 183.13024696498178,183.135525542486 183.4328228699742,183.41143305449805 183.44963264249964,183.52967900483054 183.19748605496716,184.21944553787762 182.91171992238378,184.96833199715184 182.49147560977144,185.91428949595138 182.15528015972814,186.87994944062666 181.65098698460497,188.20033343069372 181.19712312699994,189.20539550797548 179.8523413267103,192.7329230052128 179.7010533742141,192.9102829425101 179.5161458766088,192.98910952660663 178.99504292901838,193.08764270937536 178.17136407631915,193.08764270937536 178.05369566887384,193.1270559677505 178.0368858963484,193.36353534121008 177.95283703383757,193.48177491434035 177.91921748878667,193.75766695693892 177.88559794379398,193.8364931790711 177.83516862627584,193.89561282357317 177.68388067377964,193.9547324491723 177.58302203874337,194.17150424748252 177.3308754512109,197.22598887955246 177.28044613369275,197.58069994757534 177.28044613369275,198.01423477150092 177.21320704370737,198.62512302221148 177.24682658870006,198.7236531957751 177.19639727112371,199.19659729702107 177.12915818113834,199.35424506144773 177.12915818113834,199.55130457760242 177.19639727112371,199.94542297864973 177.21320704370737,200.51689316521515 177.16277772613103,200.57601066971256 176.9274409110658,200.7533630696853 176.72572364105145,200.83218630379997 176.65848455106607,200.91100950431428 176.4903868260444,201.36424225379596 176.38952819100814,202.09335347189335 176.42314773600083,202.2707044138224 176.47357705351897,202.32982135660131 176.57443568855524,202.36923264119832 177.1123484086711,202.42834955238504 177.16277772613103,202.46776081601274 177.19639727112371,202.5465833179769 177.17958749865647,202.58599455634248 177.12915818113834,202.5662889382511 177.0787288636202,202.42834955238504 177.01148977363482,202.36923264119832 176.7089138685842,202.3889382803609 176.57443568855524,202.3101157110941 176.4903868260444,202.13276480708737 176.50719659851165,201.89629666997644 176.47357705351897,201.65982822993828 176.40633796347538,201.58100534926052 176.3390988735482,201.58100534926052 176.27185978344642,201.64012251290842 176.3054793284391,201.64012251290842 176.1878109209938,201.5415938963124 176.01971319585573,201.36424225379596 175.8179959258996,201.285419246924 175.76756660826504,201.3248307545291 175.70032751833787,201.60071107256226 175.76756660826504,201.52188816668058 175.85161547083408,201.30512500178884 175.85161547083408,201.4233594869438 175.76756660826504,201.58100534926052 175.43137115822174,202.0145307764178 175.4145613858127,202.21158745209686 175.43137115822174,202.40864391744253 175.53222979331622,202.66481700782606 175.46499070333084,202.60570017235295 175.3809418407618,202.3889382803609 175.3809418407618,202.17217613385583 175.51542002084898,201.7780624878651 175.8179959258996,201.36424225379596 175.88523501588497,201.2460077307769 176.01971319585573,200.6548339796136 176.05333274090663,200.31983468006365 175.9356643334031,200.398658099366 175.750756835856,200.37895224770182 175.71713729086332,200.41836394894926 175.6667079734034,200.4380697963934 175.39775161322905,200.31983468006365 175.17922457074746,200.30012881995935 175.12879525317112,200.16218774046865 175.0783659357112,200.16218774046865 174.96069752820767,200.20159948797664 174.77579003060237,200.398658099366 174.65812162315706,200.4380697963934 174.55726298806258,200.49718732619658 174.43959458055906,200.51689316521515 174.33873594552279,200.6548339796136 174.23787731054472,200.57601066971256 174.0529698129394,200.59571650036378 173.9353014054941,200.49718732619658 173.86806231545052,200.41836394894926 173.81763299793238,200.4380697963934 173.51505709288176,200.35924639394216 173.3805789127946,200.30012881995935 173.26291050534928,200.18189361525583 173.26291050534928,200.16218774046865 173.27972027781652,200.20159948797664 173.14524209778756,200.20159948797664 172.9771443728241,200.06365833482414 172.84266619273694,200.122775984506 172.8258564202697,200.31983468006365 172.59051960520446,200.51689316521515 172.32156324514654,200.61542232891952 172.17027529265033,200.61542232891952 172.03579711250495,200.7139514399314 171.85088961507427,200.7927746909263 171.21211825980572,200.97012688255927 171.21211825980572,201.0686558042653 171.3129768949002,201.26571348990547 171.3129768949002,201.3839480002789 171.3802159849438,201.52188816668058 171.32978666742565,201.87659097825235 171.24573780491482,201.99482509731024 171.1616889423458,202.073647801255 171.06083030730952,202.0145307764178 171.0104009898496,201.93570804726915 171.06083030730952,201.93570804726915 171.07764007983496,202.15247047151206 170.87592280982062,202.34952699991118 170.7582544022589,202.5662889382511 170.67420553980628,202.5662889382511 170.52291758725187,202.50717207118578 170.3884394072229,202.48746644462517 170.37162963469746,202.29041006349144 170.30439054471208,202.21158745209686 170.22034168214304,202.15247047151206 169.93457554955967,202.073647801255 169.85052668710705,202.17217613385583 169.76647782459622,202.29041006349144 169.6151898720418,202.3889382803609 169.5311410095892,202.58599455634248 169.37985305703478,202.6451113980729 169.06046737951692,202.72393382430892 168.82513056439348,202.99981205099903 168.74108170182444,203.23627877428953 168.724271929299,203.5318617522571 168.7578914744081,203.59097829110397 169.0940869244514,203.41362861782545 169.69923873455264,203.27568986534607 169.8337169146398,203.21657322556712 169.8673364595743,203.23627877428953 169.91776577709243,203.49245071591577 170.08586350211408,203.80773877132742 170.2371514546685,203.94567712620483 170.3884394072229,203.98508806589234 170.48929804220097,204.08361537799647 170.69101531227352,204.16243718996702 170.92635212733876,204.33978614359512 171.07764007983496,204.57625115012343 171.0944498523604,204.7733050907991 171.22892803238938,205.20682301966008 171.22892803238938,205.4629922263266 171.26254757738207,205.50240284194297 171.43064530246193,205.4629922263266 171.48107461998006,205.48269753517525 171.43064530246193,205.4629922263266 171.36340621236013,205.48269753517525 171.24573780491482,205.60092934416025 171.0944498523604,205.91621379787102 170.80868371977704,206.11326630799158 170.7582544022589,206.13297154739848 170.69101531227352,205.97532957304793 170.43886872474104,205.85709800383484 170.40524917974835,205.9359190583782 170.48929804220097,206.23149771305907 170.354819862172,206.29061338720203 170.25396122719394,206.29061338720203 170.2035319096176,206.34972904238384 170.08586350211408,206.3103186076769 170.0522439571214,206.27090816457348 170.0186244121287,206.29061338720203 170.11948304716498,206.48766549761058 170.33801008970477,206.6256018496788 170.48929804220097,206.66501221702492 170.7246348572662,206.78324326867005 170.95997167233145,207.0 171.02721076231683,207.0 171.1616889423458,206.8817690871947 171.3802159849438,206.84235876609455 171.58193325495813,206.84235876609455 171.6827918899944,206.8817690871947 172.30475347256288,206.8817690871947 172.70818801264977,206.70442257598916 173.02757369034225,206.4482550922985 173.12843232537853,205.85709800383484 173.1956714153057,205.73886635893723 173.24610073282383,205.50240284194297 173.49824732041452,205.22652835590998 173.66634504537797,205.12800165376393 173.83444277045783,205.1082963070803 174.0865893579903,204.99006418247882 174.33873594552279,205.02947489917278 174.40597503556637,205.0491802542674 174.65812162315706,205.02947489917278 175.16241479822202,204.7733050907991 175.44818093074718,204.53684033673198 175.5658493383089,204.33978614359512 175.5994688833016,204.16243718996702 175.6667079734034,204.06390991980152 175.76756660826504,203.72891680798784 175.71713729086332,203.13775100970815 175.64989820081973,203.01951762282988 175.5658493383089,202.96040090100723 175.51542002084898,202.66481700782606 175.4145613858127,202.32982135660131 175.51542002084898,201.91600235966325 175.7843763808487,201.60071107256226 175.8179959258996,201.44306522706756 175.969283878454,201.3445365052612 176.05333274090663,201.3445365052612 176.120571830892,201.44306522706756 176.27185978344642,201.5415938963124 176.3727184184827,201.64012251290842 176.35590864595724,201.67953394488723 176.5576259160298,201.30512500178884 176.57443568855524,201.12777313207334 176.64167477859883,200.97012688255927 176.8265822760295,200.8518921070936 177.2300168161746,200.49718732619658 177.515782948758,200.398658099366 177.54940249375068,200.33954053804337 177.56621226627612,200.2607170934789 177.4485438586562,199.49218674477015 177.38130476872902,199.1571853348578 177.38130476872902,198.82218331680633 177.515782948758,197.48216916370438 177.56621226627612,196.5953897418658 177.73430999123957,195.23565301901544 177.86878817138495,194.78240521838597 177.90240771631943,194.46710174399777 177.86878817138495,194.348862802246 177.95283703383757,193.6985472682718 177.88559794379398,193.06793607701547 177.86878817138495,192.31908248852415 177.76792953623226,191.72788014054822 177.515782948758,191.01843482277764 176.9274409110658,189.83601989875024 176.8265822760295,189.52070797274064 176.69210409605876,188.98861787588976 176.64167477859883,188.5550618477282 176.64167477859883,187.80618994525867 176.80977250362048,186.97848588551278 176.84339204861317,186.56463246329804 176.87701159354765,186.46609579742653 177.06191909115296,186.20990021980833 177.16277772613103,186.01282645649917 177.76792953623226,184.41652121661173 178.7428963414277,181.93335228209617 179.01185270160204,181.16474560093775 179.0790917915292,181.08591396540578 179.16314065404003,181.04649813502328 179.28080906160176,181.02679021668155 179.58338496671058,181.14503769522707 179.76829246419948,181.14503769522707 179.93639018927934,181.02679021668155 180.17172700428637,181.00708229624433 180.3734442743007,180.9085426623642 180.3734442743007,180.73117118884693 180.32301495684078,180.61292344506364 180.30620518437354,180.474967648217 180.42387359181885,179.46985801482515 180.35663450183347,179.27277705252345 179.5497654217179,178.44503471183998 178.1881738489028,176.8289556294767 177.16277772613103,175.68586675543338 176.43995750846807,174.95665118731267 175.11198548070388,173.3996677598625 172.7922368751606,170.87693254051555 172.2375143825775,170.20682519911497 171.7164114349871,169.65497026669618 169.91776577709243,167.62491827354825 169.36304328445112,166.9547991189611 168.30402761674486,165.8510681460466 166.18599628133234,163.42677871890191 165.41274674620945,162.5989652758435 165.16060015861876,162.36244646686828 164.53863857599208,161.59375824328163 161.96674338291632,158.71607644979667 161.02539612271357,157.76997947816562 159.69742409494938,156.23256154885166 158.21816411463078,154.57686636994185 157.68025139451493,154.08409707753162 156.7052845893195,153.01971091280575 156.6380454993341,153.0 156.52037709171418,153.21681992524827 156.35227936669253,153.39421785640297 155.86479596415302,153.86727817180508 155.66307869408047,154.12351866938116 154.9402584764175,154.73455226543592 153.51142781361705,156.09458751829516 153.15842259099009,156.33111436464242 152.603700098407,156.94214064710832 151.9817385157803,157.5137440465187 151.52787465811707,157.86853147250076 151.0908205730957,158.12476641127432 150.3511905829655,158.36129065415298 150.08223422284937,158.4401320009929 149.32579446019372,158.5386836372636 148.82150128512876,158.49926298909122 148.55254492507083,158.4795526618691 148.45168629003456,158.4401320009929 148.21634947502753,158.45984233247873 147.47671948478092,158.40071133180754 147.0228556271759,158.40071133180754 146.53537222469458,158.30215962181683 145.94703018700238,158.2430285705923 145.59402496437542,158.2430285705923 145.24101974180667,158.18389750039205 143.96347703156061,158.14447677641874 142.46740727877477,158.0262145538436 141.9631141036516,157.96708341414342 141.69415774359368,157.86853147250076 141.45882092852844,157.92766264379316 141.1898645684705,157.9473730300524 140.95452775340527,157.8882418650319 140.483854123333,157.8882418650319 139.895512085699,157.750269073018 139.39121891063405,157.67142743121076 138.6683986929711,157.49403361398436 137.96238824777538,157.25750825897558 137.62619279773207,157.0998245204246 137.3404266651487,157.02098260064668 137.22275825764518,156.90271965770808 136.95380189758725,156.74503561589518 136.5671771299676,156.68590406540898 136.55036735750036,156.56764090769866 136.6007966750185,156.449377674071 136.63441621995298,156.42966712778434" stroke="#4dd2ff" stroke-linecap="round" stroke-linejoin="round" stroke-width="0.5"><title>2022-10-03 11.5km</title></polyline><polyline fill="none" points="61.76691666248371,213.0 61.88196021397016,213.0872562941222 61.91579655261012,213.1427829734239 61.98346922991914,213.16658010896208 62.02407283632783,213.19830961122352 62.112047316884855,213.36488927569735 62.172952726483345,213.579062581397 62.21355633289204,213.84876142175926 62.21355633289204,213.99154276454647 62.25415993927163,214.12639155866054 62.247392671532,214.19778199763823 62.301530813390855,214.4595463539663 62.26092720698216,214.52300424091663 62.308298081101384,214.6499198522215 62.31506534887012,214.83236066383688 62.36243622296024,215.0385975637837 62.33536715203081,215.1020549563109 62.409807097079465,215.18930878258834 62.4165743648482,215.53832306341792 62.47071250670706,216.0856376126976 62.61959239686257,217.04541136733314 62.66696327095269,217.60857862748526 62.639894200023264,217.822739705196 62.59252332590404,217.94171781509067 62.54515245175571,218.00517272916477 62.14588365552481,218.37003743385867 62.04437463951763,218.4096965329809 61.36088059851318,218.8459452268071 61.259371582535096,218.86974053646554 60.99544814095134,219.08389798068674 60.65708475431893,219.27425963537826 60.46760125781293,219.4170305564985 60.33902317090542,219.55186950798088 60.156306942080846,219.8056833413575 60.0412633906235,219.92465827747947 59.621692791202804,220.49573532012437 59.466045633365866,220.7812721963419 59.30363120773109,221.15405480077607 59.161518585373415,221.56649295090756 59.11414771122509,221.84409426360799 58.96526782112778,222.27239139837184 58.76901705688215,223.28760438035533 58.728413450473454,223.90624299353658 58.73518071821309,224.54073878804775 58.802853395522106,224.68349959559418 59.06000956939533,224.8817780402096 59.39160568828811,224.97695150582877 59.953288910124684,225.10384927044652 60.2307468871295,225.2069535447299 60.33902317090542,225.28626442764653 60.433764919114765,225.4448859397089 60.548808470601216,225.76212794860476 60.73152469936758,226.1428165726029 60.77889557351591,226.40453887097829 60.72475743162795,226.61074366932007 60.58941207700991,226.88039523508633 60.46760125781293,227.27693987889506 60.426997651404236,227.5624507130051 60.426997651404236,228.3158768172798 60.45406672236277,228.41104588742746 60.51497213196126,228.48242261009 60.548808470601216,228.5062148357465 60.6097138801706,228.58552219966077 60.75182650255738,228.69655236702238 60.765361038036644,228.7599981024905 60.96837907002191,228.95033498417615 61.14432803107775,229.21997806590662 61.29997518894379,229.6165102334635 61.45562234680983,230.2430267486052 61.49622595318942,230.9884952190041 61.36764786625281,231.89256397564895 61.22553524389514,232.29701222969015 61.06988808599999,232.56664317711693 60.90747366042342,232.7649006030697 59.96005617783521,233.62929680474917 59.83824535863823,233.8116910499666 59.75703814587905,234.0020150028795 59.716434539470356,234.23198912949738 59.72320180715178,234.45403243908368 59.89238350052619,234.92983729892148 59.94652164238505,235.2391088255972 59.92621983916615,235.5166591007801 59.81794355547754,236.07175654410094 59.824710823158966,236.30172427131038 59.845012626377866,236.34930371228256 59.824710823158966,236.4286027129856 59.8517798941175,236.66649920780037 59.845012626377866,236.94404415678582 59.872081697307294,236.99955302230228 59.8517798941175,237.3167457449308 59.824710823158966,237.49120116581616 59.78410721675027,237.63393711498065 59.70966727170162,237.78460254191305 59.67583093306166,237.9114784542253 59.60815825572354,237.99077578953438 59.466045633365866,238.2603860972522 59.40514022373827,238.4982767337424 59.42544202695717,238.7837444933175 59.48634743655566,238.96612609949807 59.60139098801301,239.14057765226607 59.702900004020194,239.19608487867663 59.81794355547754,239.37053589212155 59.905918035976356,239.4339725228565 60.37962677725591,239.7035775999757 60.6300156833895,239.7987320997854 60.69092109295889,239.86216836537642 60.826266447635135,239.93353409950214 60.94130999909248,240.028688305174 61.2390697793453,240.45688072451594 61.27967338572489,240.5758226258331 61.29320792117505,240.75819983849942 61.23230251160567,241.05158832942834 61.08342262147926,241.44805742486642 60.988680873211706,241.59871512712562 60.90070639268379,241.69386720294278 60.46760125781293,241.98725200397894 59.85854716185713,242.45507942839322 59.716434539470356,242.60573509141977 59.60815825572354,242.7881073279641 59.56755464934395,242.94669151807466 59.33070027868962,243.44622950750636 59.12768224670435,243.96162233047653 58.96526782112778,244.23914006407722 58.8231551987119,244.41357925251214 58.72164618270472,244.50872772837465 58.49155907979002,244.65145021402714 58.24793744145427,244.74659838568186 58.05168667717953,244.7941724258926 57.266683620197,244.81003043254168 56.894483894866426,244.84967543436505 56.63056045331177,244.82588843580015 56.37340427946765,244.76245640246634 56.170386247482384,244.61973412977386 56.05534269605414,244.49286965750798 55.960600947757484,244.27085631057707 55.91323007363826,244.03298413228185 55.71697930936352,243.5968831634964 55.601935757906176,243.40658375786734 55.338012316351524,243.05770025000675 55.25680510356324,242.90704550221562 55.101157945697196,242.70881510612526 54.86430357504287,242.35199906215712 54.810165433213115,242.31235272941558 54.63421647212817,242.04275710645015 54.505638385220664,241.91588823992788 54.11990412443993,241.64629118025914 54.02516237620148,241.51942163766216 53.9033515570045,241.249823141261 53.81537707647658,241.1546704975117 53.686798989539966,241.05158832942834 53.5040827607736,240.97229425678233 53.28753019333817,240.9564354321119 52.88149412936764,241.0040118959805 52.8950286648178,240.98815307806944 52.90856320029707,241.0119413036591 52.86119232614874,241.0119413036591 52.82735598747968,241.03572952165996 52.90179593252833,241.01987071048643 52.73938150695176,241.0595177320356 52.3265781752707,241.08330593481514 52.15739648195449,241.12295292252384 51.42653156683082,241.40841061041283 51.31148801537347,241.43219870161556 50.89191741592367,241.4718455034017 50.688899383938406,241.53528034231567 50.44527774557355,241.65422051947826 49.856525452807546,242.03482780862396 49.59260201122379,242.1696257565709 49.41665305016795,242.21720144461142 49.274540427781176,242.22513072298898 48.990315183007624,242.15376718714833 48.719624473684235,241.9396761688913 48.374493819341296,241.75730185255816 47.90755234574317,241.40048124496388 47.81281059750472,241.21810560685844 47.67746524285758,240.78198813763447 47.48121447858284,240.52824588812655 47.33233458848554,240.39344496607373 47.06164387916215,240.28243225859478 46.858625847205985,240.13970139129378 46.70974595705047,239.9731816999847 46.655607815191615,239.86216836537642 46.5676333346637,239.7670139467009 46.43228798004566,239.30709920731897 46.47289158642525,239.04542231056985 46.49996065732557,238.7837444933175 46.47289158642525,238.62515142880147 46.47289158642525,238.450698667315 46.43905524772708,238.37933151059406 46.405218909087125,238.36347213313275 46.3781498381577,238.37933151059406 46.14129546750337,238.36347213313275 45.89090656139888,238.44276898659155 45.65405219074455,238.57757344352285 45.43073235559859,238.72823695919215 45.160041646275204,238.99784459407238 45.01116175611969,239.1802256753508 44.794609188713366,239.50533866778278 44.720169243606506,239.60049342115963 44.652496566297486,239.64807075221324 44.652496566297486,239.62428209050267 44.58482388895936,239.71150714627584 44.31413317966508,240.1793488818803 44.30059864418581,240.22692584273318 44.13818421860924,240.39344496607373 43.948700722074136,240.6471876753203 43.85395897383569,240.81370585794502 43.48175924853422,241.21810560685844 43.04865411363426,241.52735099042184 42.74412706567091,241.67007919542812 42.21628018247429,241.99518130686192 41.932054937729845,242.14583790117467 41.471880731900455,242.44715017453564 41.12675007749931,242.7167443320941 40.957568384183105,242.81982419300766 40.74101581677678,242.99426670918183 40.700412210368086,243.06562943881727 40.619204997550696,243.0973461855756 40.314677949558245,243.31143387252814 40.30114341410808,243.35900883039722 40.341747020487674,243.40658375786734 40.36204882370657,243.47794609202538 40.33497975280625,243.3986546054075 40.26730707543902,243.35900883039722 40.24023800450959,243.3669379871062 40.165798059490044,243.4541586549094 40.057521775743226,243.52552094343991 39.989849098434206,243.5968831634964 39.502605821646284,243.9536932371775 39.2116133091331,244.19949473694578 39.08980248993612,244.25499818901153 39.0221298126271,244.31050159969163 38.98829347395804,244.3660049689497 38.86648265479016,244.4056502073654 38.75820637104334,244.51665676254925 38.49428292945959,244.69902431507217 38.44691205534036,244.77038540960348 38.358937574812444,244.80210142963915 38.0544105268491,245.0399711490536 36.97164768958464,246.0152290481201 36.49117168056546,246.50681761511805 35.79414310408174,247.1490493982492 33.68952283918043,249.25013934083108 33.588013823202346,249.37699570247787 33.32409038161859,249.59106532240548 33.22934863335104,249.70999262294936 32.45788011181867,250.47112284587638 32.261629347573034,250.73275956212456 32.0653785833274,250.92304023253382 31.875895086792298,251.1846753600039 31.71348066124483,251.33531334946747 31.63227344842744,251.47802274244168 31.490160826040665,251.62073186175985 31.077357494359603,252.16778095079644 30.894641265564132,252.34220155403455 30.58334694983205,252.73861049573316 29.459980506217107,254.09431311858498 29.06747897772584,254.53828053977486 28.810322803852614,254.8712543678048 28.566701165487757,255.22801038770558 28.113294227368897,255.9415172977533 28.045621550059877,256.08421785899554 27.74786176980706,256.52817341119226 27.62605095061008,256.773933381839 27.646352753799874,256.85321061862487 27.612516415130813,256.90870463414467 27.68018909249804,256.9483431913468 27.59898187968065,257.01969254108553 27.504240131442202,257.26545088895364 27.423032918624813,257.33679993471014 27.34859297357616,257.4636425139397 27.341825705836527,257.4874254734823 27.355360241315793,257.4874254734823 27.220014886639547,257.6539059775023 27.11850587063236,257.860024180889 26.94932417734526,258.0978521679426 26.841047893598443,258.0740694034175 26.82751335814828,258.1137073400387 26.604193522944115,258.4863029127009 26.198157459002687,259.12843133162824 26.171088388073258,259.2077060609445 25.961303088377463,259.50894926248293 25.785354127321625,259.83397345489357 25.528197953448398,260.3571801496946 25.453758008399745,260.5712181922936 25.311645385983866,260.87245587642246 24.82440210925415,262.1170302292885 24.682289486867376,262.5292413519055 24.668754951417213,262.87010651782475 24.743194896465866,263.1792619466505 24.756729431945132,263.4091459205447 24.749962164176395,263.4646350492694 24.736427628726233,263.44878101670474 24.749962164176395,263.4646350492694 24.70259129005717,263.74208007259585 24.655220415937947,263.88476568203623 24.587547738599824,263.9878162299283 24.58078047086019,264.0750127359279 24.37099517113529,264.35245548482635 24.1409080682497,264.55855514332507 23.87021735892631,264.88355729188333 23.61306118511129,265.44636253522185 23.545388507744065,265.4701429447814 23.504784901364474,265.5097769438653 23.484483098145574,265.61282524272247 23.511552169104107,265.63660559913114 23.531853972293902,265.69209306787525 23.464181294984883,265.7792875780724 23.41004315309692,265.7951411144095 23.34913774349843,265.9853832872104 23.173188782442594,266.2548921999696 23.024308892316185,266.38964629053953 22.87542900221888,266.47683998391585 22.67241097020451,266.5323268265274 22.48292747369851,266.51647344715457 22.388185725460062,266.52440013724845 22.185167693474796,266.4926933717361 21.58288086525863,266.34208605113236 21.43400097513222,266.2628189179304 21.31895742364577,266.239038761516 21.136241194879403,266.0725774539533 21.014430375682423,265.97745653970924 20.87231775332475,265.8981890183277 20.723437863169238,265.8664819861733 20.56102343762177,265.8744087454761 20.398609012016095,265.914042529359 20.182056444551563,266.1280645978113 20.08731469628401,266.2628189179304 19.992572948045563,266.48476667824434 19.918133002967807,266.5640335751814 19.809856719279196,266.825613736386 19.660976829152787,266.9841467202059 19.532398742216174,267.0 19.342915245710174,266.92073356717447 19.139897213724907,266.6908604347336 19.045155465457356,266.50854675618757 18.98425005588797,266.4372064995914 18.79476655932376,266.3024524950888 18.551144920958905,266.2152585974909 18.395497763121966,266.1280645978113 17.745840060786577,265.5177037411413 17.603727438370697,265.44636253522185 17.333036729047308,265.25611898525676 17.339803996816045,265.24819216011383 17.373640335456003,265.25611898525676 17.360105799976736,265.27197263296694 17.38040760322474,265.26404580953385" stroke="#4dd2ff" stroke-linecap="round" stroke-linejoin="round" stroke-width="0.5"><title>2022-09-23 14.1km</title></polyline></svg>