<?xml version="1.0" encoding="utf-8" ?>
<svg baseProfile="full" height="300mm" version="1.1" viewBox="0,0,200,300" width="200mm" xmlns="http://www.w3.org/2000/svg" xmlns:ev="http://www.w3.org/2001/xml-events" xmlns:xlink="http://www.w3.org/1999/xlink"><defs /><rect fill="#222222" height="300" width="200" x="0" y="0" /><text fill="#FFFFFF" style="font-size:12px; font-family:Arial; font-weight:bold;" x="10" y="20">Workouts</text><text fill="#FFFFFF" style="font-size:4px; font-family:Arial" x="10" y="280">ATHLETE</text><text fill="#FFFFFF" style="font-size:9px; font-family:Arial" x="10" y="290">mchen</text><text fill="#FFFFFF" style="font-size:4px; font-family:Arial" x="120" y="280">STATISTICS</text><text fill="#FFFFFF" style="font-size:3px; font-family:Arial" x="120" y="285">Number: 6</text><text fill="#FFFFFF" style="font-size:3px; font-family:Arial" x="120" y="290">Weekly: 1.2</text><text fill="#FFFFFF" style="font-size:3px; font-family:Arial" x="141" y="285">Total: 85.0 km</text><text fill="#FFFFFF" style="font-size:3px; font-family:Arial" x="141" y="290">Avg: 14.2 km</text><text fill="#FFFFFF" style="font-size:3px; font-family:Arial" x="167" y="285">Min: 11.5 km</text><text fill="#FFFFFF" style="font-size:3px; font-family:Arial" x="167" y="290">Max: 21.1 km</text><polyline fill="none" points="86.0,78.71819129805954 85.96755002703867,78.74102094103728 85.89616008655867,78.73341106086446 85.86371011353913,78.74863082040247 85.72093023255002,78.70297153197316 85.07842076799716,78.59643307847728 84.77339102217229,78.51272418178996 84.43591130338609,78.39096561090264 84.24770146023366,78.30725647268264 84.11790156838833,78.2768167616523 83.82585181179456,78.15505778740044 83.39751216871082,78.01046873510495 83.0989724175306,77.8887093054509 83.02109248240595,77.84304946564953 82.75500270415796,77.7593396833181 82.57328285559197,77.683239795806 82.34613304489176,77.61474982751679 82.21633315304643,77.56147980663809 82.17739318549866,77.53103977681167 82.09302325578756,77.50059973396128 80.89886425095028,77.22663876284787 80.79502433745074,77.21902872082865 80.47052460789564,77.142928255882 79.85397512165946,77.04399752985773 79.75013520821813,77.0059472140274 79.60735532719991,76.99833714843408 79.5489453758637,76.98311701475177 79.49053542455658,76.9298465213651 79.4645754461817,76.8537457473576 79.4515954570088,76.32103805205406 79.40616549484548,76.16883512139611 79.39318550567259,76.03185220563319 79.39318550567259,75.88725884197629 79.32828555974993,75.33171318719542 79.23742563548149,74.70767043322121 79.1400757165975,74.22060887370026 78.97782585179084,73.5280624818115 78.93888588424306,73.30735946894856 78.89345592210884,73.15515009593219 78.84153596538818,72.95727742454619 78.48458626281354,71.78525109521433 78.35478637102642,71.45799354439805 78.0562466197589,70.46860110212583 77.99134667386534,70.1946130715587 77.76419686316513,69.54008184112172 77.79015684154001,69.55530356597592 77.73823688479024,69.48680577843334 77.72525689558825,69.41830792495603 77.70578691182891,69.37264265270642 77.4786371011287,68.96165388410736 77.30340724714915,68.55066274265846 77.12817739316961,68.20055730609602 77.08274743103539,68.04072599083156 76.99188750673784,67.85806119107292 76.89453758788295,67.69822910677613 76.81016765817185,67.57645203974971 76.58950784205808,67.1426195453314 76.45970795024186,66.92950787787413 76.38182801514631,66.82295180486108 76.36235803135787,66.83817411077325 76.35586803674232,66.80772949571838 76.38182801514631,66.81534065069718 76.28447809626232,66.66311739627417 75.85613845320768,66.09988852430251 75.71335857218946,65.94766373980383 75.38885884263436,65.55187777648098 75.01892915088683,65.12564427777397 71.5078420767968,61.25136917959753 71.51433207138325,61.25898092879652 71.50135208218126,61.28181617153314 71.42347214711481,61.33509837609017 71.38453217953793,61.39599227533472 71.29367225526948,61.45688612245431 71.24175229851971,61.51777991748531 71.11844240128994,61.616732223235886 70.66414277988952,62.05059840132162 70.59275283938041,62.09626837144606 69.90481341263512,62.73564487614931 69.4505137912056,63.131446500483435 69.08707409410272,63.43590779059741 68.93131422391161,63.55008043858834 68.76906435907586,63.69469886313891 65.59545700377203,65.63560191380384 65.32287723093759,65.76499356865679 64.82314764737384,65.94766373980383 64.33639805298299,66.09227729282429 63.94050838291878,66.16838957111759 63.414818820980145,66.29778025746054 62.954029204993276,66.43478190424503 61.53921038398403,66.80011833989556 61.389940508350264,66.83056295823917 61.084910762583604,66.92189673508983 60.22823147647432,67.11217506048706 59.91022174144746,67.20350847599184 59.845321795583004,67.20350847599184 59.73499188752612,67.22634181155445 59.41698215249926,67.24917513979017 59.274202271481045,67.28723067058309 59.15089237422217,67.29484177431004 58.93672255272395,67.34811947754497 58.82639264466707,67.36334167114546 58.793942671705736,67.39378604858939 58.70308274743729,67.39378604858939 58.52785289345775,67.44706367776234 58.2682531097671,67.47750801939401 58.22282314763288,67.50795234798716 57.96322336397134,67.55361881647696 57.72958355865558,67.62972953220014 57.60627366145491,67.64495166556298 56.01622498646611,68.05594803632994 55.879935100034345,68.07878109844023 55.4515954569797,68.1929462992266 55.41265548946103,68.20055730609602 55.37371552188415,68.1929462992266 55.32828555974993,68.21577931741194 55.2114656570775,68.23861232827767 55.06219578147284,68.24622333025036 54.41968631691998,68.42888713395223 54.062736614374444,68.48977496434964 53.96538669549045,68.52782983189536 53.718766901030904,68.5734956461165 53.575987019983586,68.61155046891508 53.43320713896537,68.6343833528299 52.99188750673784,68.7637695566591 52.901027582469396,68.7637695566591 51.14872904273216,69.15192675713479 51.1552190373186,69.18237036963546 51.14872904273216,69.17475946771447 51.10978907518438,69.20520307044353 50.94753921037773,69.25086845012265 50.59707950244774,69.3269773511347 50.48674959439086,69.36503177113627 49.03299080583383,69.69990978993883 48.90968090860406,69.71513148063968 48.526771227654535,69.81407239083637 48.28015143319499,69.85973737991299 46.88480259600328,70.17939148338337 46.6057328285242,70.26311017806438 46.32666306110332,70.30877487912221 45.44402379661915,70.33921799686505 45.37912385069649,70.36205032665748 45.27528393722605,70.36205032665748 45.20389399674605,70.39249342162657 45.05462412111228,70.43054727205163 44.976744186045835,70.43054727205163 44.73012439155718,70.4762118656945 44.69118442400941,70.4838226284628 44.50297458082787,70.46099033774954 44.36019469983876,70.49143339042348 44.12006489993655,70.5523194566922 43.918875067611225,70.63603771280759 43.69172525688191,70.69692365539959 43.08166576526128,70.78825247168425 43.003785830165725,70.8186953843906 39.89507842075545,71.59498526035895 39.89507842075545,71.60259590352507 39.83666846941924,71.61020654586173 39.758788534323685,71.64825974537234 39.65494862085325,71.66348101948824 39.50567874527769,71.73197671271191 39.401838831807254,71.71675545323524 33.32720389397582,73.12470818229485 32.85343428881606,73.21603388419317 27.80421849648701,73.93141449626273 27.2395889670006,73.96185606497602 26.986479177925503,73.9542456740237 26.11032990802778,73.96946645514254 24.831800973508507,73.9542456740237 20.4510546241072,73.96185606497602 20.340724716050318,73.98468723300175 19.977285018918337,73.94663528225647 19.55543537045014,73.93902488967433 19.44510546242236,73.94663528225647 19.2958355867886,73.93902488967433 19.17252568952972,73.94663528225647 18.491076257429086,73.93141449626273 18.186046511604218,73.94663528225647 18.095186587335775,73.93902488967433 17.712276906415354,73.93902488967433 16.965927528392058,73.90858331116033 16.08328826390789,73.93141449626273 15.758788534352789,73.9009729145182 15.58355868034414,73.90858331116033 15.25256895617349,73.9009729145182 14.597079502447741,73.91619370701665 14.337479718786199,73.90858331116033 14.220659816113766,73.91619370701665 14.123309897229774,73.9009729145182 14.0,73.90858331116033" stroke="#4dd2ff" stroke-linecap="round" stroke-linejoin="round" stroke-width="0.5"><title>2023-03-05 12.4km</title></polyline><polyline fill="none" points="186.0,51.97631540753355 185.60153727896977,51.91142374273477 185.1588009223342,51.75568360582838 184.82674865488661,51.71674854041339 183.221829362039,51.28846199680265 182.84550345892785,51.21059155385592 182.56879323598696,51.041872089561366 182.01537279016338,50.87315239087184 181.43981552647892,50.60060469015298 181.18524212139891,50.54869077308831 180.89746348955669,50.4448628722821 180.44365872407798,50.18529273196327 180.366179861594,50.12040011018689 180.18908531899797,50.1074215816916 179.87916986935306,49.990614762609766 179.7242121445015,49.96465767644986 179.64673328207573,49.912743487489934 179.34788624133216,49.860829276374716 179.25933897000505,49.75700078751106 179.06010760948993,49.718065081280656 178.94942352036014,49.653172209858894 175.54035357414978,48.822540392946394 175.33005380479153,48.83551905878994 175.07548039971152,48.79658305711928 174.96479631058173,48.83551905878994 174.69915449654218,48.822540392946394 174.4224442736595,48.744668368854036 173.97970791702392,48.71871101636498 173.7251345119439,48.69275365831709 173.54803996928968,48.65381761093158 173.37094542657724,48.64083892567578 173.28239815530833,48.69275365831709 173.27132974634878,48.77062571574788 173.20491929282434,48.822540392946394 173.12744043039856,48.83551905878994 172.9946195234661,48.78360438710661 172.19769408146385,48.822540392946394 170.00614911608864,49.10807072082389 169.89546502690064,49.198921138900914 169.54127594159218,49.2508356330145 168.8771714066388,49.40657898219797 168.7332820906886,49.40657898219797 168.6779400461237,49.36764316360495 166.02152190625202,49.653172209858894 165.96617986168712,49.718065081280656 165.9883166794898,49.73104365137988 165.9329746348667,49.78295791801793 165.77801691007335,49.82189360342454 165.37955418904312,49.87380783122353 164.79292851651553,49.912743487489934 164.46087624906795,49.990614762609766 164.18416602612706,50.00359330363426 164.09561875479994,50.01657184326905 164.01813989243237,50.00359330363426 163.8853189854417,50.02955038147047 163.75249807839282,50.01657184326905 162.70099923136877,50.17231421035831 162.5681783243781,50.18529273196327 162.512836279755,50.15933568741457 162.3468101460603,50.19827125217125 161.63843197538517,50.237206804406014 161.41706379706739,50.27614234416251 160.54265949269757,50.354013386277074 160.06671790929977,50.341034882716485 159.5132974634762,50.39294888859149 159.22551883169217,50.37997038921458 159.10376633354463,50.405927386578696 158.99308224447304,50.405927386578696 158.91560338198906,50.354013386277074 158.63889315910637,50.4448628722821 158.09654112218414,50.457841364746855 157.85303612606367,50.48379834546358 157.74235203687567,50.47081985580007 157.576325903181,50.49677683376649 157.52098385855788,50.47081985580007 152.1417371252901,50.60060469015298 151.54404304380296,50.63954011345777 151.3337432743865,50.73038938584796 150.83566487312783,50.73038938584796 150.31544965412468,50.808260136698664 150.20476556493668,50.84719549336296 146.60753266717074,51.49611626716796 146.4525749423192,51.56100815383252 146.29761721752584,51.703770182481094 146.22013835510006,51.71674854041339 146.04304381244583,51.75568360582838 145.9766333589214,51.72972689692688 144.50453497312265,52.09312031674199 144.39385088399285,52.11907694794354 144.33850883931154,52.09312031674199 143.80722521134885,52.196946808377106 143.69654112227727,52.27481661888305 143.64119907759596,52.27481661888305 143.07671022287104,52.45651264917251 142.72252113756258,52.54736056239926 142.49008455034345,52.61225188737444 142.40153727901634,52.62523014821636 142.35726364335278,52.61225188737444 142.10269023827277,52.664164922396594 141.92559569561854,52.65118666570197 141.8038431975292,52.69012143159489 141.6931591083994,52.677143177708786 141.5492697924492,52.742034433329536 139.13635664869798,53.403923260382726 138.93712528824108,53.442857784961234 138.5275941583095,53.57263944330771 138.2951575711486,53.624552067834884 138.04058416606858,53.7283772503215 137.2879323597299,53.88411485761026 136.9005380476592,54.0398522651376 136.4799385088263,54.091764689961565 136.23643351270584,54.16963328559359 135.76049192924984,54.260479917385965 135.2734819369507,54.403238772902114 134.97463489620714,54.455151042406214 134.5429669485311,54.5849316190579 134.16664104536176,54.67577794023964 134.08916218293598,54.68875598056184 134.00061491160886,54.74066812798992 133.71283627976663,54.792580253277265 133.25903151422972,54.90938245401776 133.0044581091497,54.948316495982 132.87163720215904,54.93533848339575 132.4178324365639,54.93533848339575 132.30714834749233,54.87044839957525 131.97509607992833,54.805558281135745 131.75372790161055,54.87044839957525 131.7094542660052,54.96129450718581 131.58770176785765,55.1170305335545 131.2335126825492,55.32467825805361 131.14496541122207,55.29872231191257 131.10069177555852,55.22085444015829 131.10069177555852,55.24681040296855 131.1228285933612,55.233832422236446 131.18923904688563,55.233832422236446 131.1228285933612,55.32467825805361 130.96787086856784,55.32467825805361 130.87932359724073,55.35063419866492 130.69116064568516,55.46743586273806 130.4808608762687,55.53232562755875 129.81675634125713,55.68806092171144 129.62859338975977,55.80486226128414 129.47363566485,55.81784018097096 129.39615680248244,55.856773931715 129.24119907763088,55.882729758632195 128.86487317451974,56.05144249823206 128.66564181400463,56.05144249823206 128.58816295157885,56.090376174055564 128.49961568025174,56.038464603472676 128.41106840892462,56.090376174055564 128.3225211375975,56.10335406324157 128.30038431973662,56.12930983744445 127.89085318992147,56.25908862522192 127.66948501148727,56.29802223452862 127.5920061491197,56.32397796714213 127.30422751727747,56.388867274356016 127.20461183704901,56.388867274356016 123.86195234430488,57.2324251136597 123.74019984627375,57.297313935552665 123.62951575708576,57.4011359785145 123.59631053038174,57.49198019327741 123.55203689471819,57.49198019327741 123.49669485015329,57.54389114266087 123.35280553420307,57.56984660902526 123.19784780940972,57.6347352506491 123.1093005380244,57.76451242995245 123.18677940050839,57.842378670946346 123.20891621831106,57.907267166992824 123.23105303611374,57.93322255574458 123.23105303611374,57.972155628369364 123.5852421214222,59.03632144918083 123.59631053038174,59.10120930740959 123.82874711760087,59.82795095143956 123.8951575710671,59.98368073805614 123.90622598002665,60.1134554076998 123.97263643355109,60.21727504357841 124.13866256730398,60.63255269984802 124.23827824753243,61.02187421319104 124.36003074556356,61.35928518212313 124.49285165255424,61.78753621609212 124.55926210607868,61.930286225244345 124.64780937740579,62.189831266623514 124.78063028439647,62.41044411580515 125.23443504993338,64.39594172939542 125.63289777096361,65.46005127679382 125.76571867795428,65.71958877687575 125.9428132205503,66.19973169032892 126.02029208303429,66.35545330875175 126.07563412759919,66.4073604705336 126.20845503458986,66.8485704503546 126.39661798620364,67.30275552049716 126.49623366637388,67.60121907069697 128.0679477325175,70.94915126120031 128.25611068407306,71.19570075987576 128.27824750187574,71.2476058537577 128.3225211375975,71.27355839237134 128.36679477326106,71.27355839237134 128.41106840892462,71.37736849142675 128.45534204458818,71.39034474755317 128.4885472713504,71.36439223388152 128.61029976938153,71.35141597495385 128.70991544960998,71.31248718989809 128.76525749423308,71.33843971466558 128.73205226752907,71.35141597495385 128.82059953879798,71.3254634529585 128.93128362804418,71.40332100230444 129.1305149885011,71.75367935689428 129.15265180630377,71.84451283946692 129.28547271329444,72.11701287976757 129.31867793999845,72.15594140707981 129.45149884704733,72.27272691409598 129.54004611837445,72.40248845690076 129.78355111455312,72.947485423545 131.24458109145053,74.95876259562647 131.38847040734254,75.07554540878482 131.62090699461987,75.3610140350429 131.6873174480861,75.3610140350429 131.78693312837277,75.50374809670757 132.074711760215,75.84111884862796 132.24073789390968,75.98385234631132 132.4731744811288,76.26931883867655 132.5506533436128,76.3212217652399 132.7166794773657,76.48990612346824 133.35864719445817,77.21654375886283 133.4250576479826,77.33332440212689 133.60215219063684,77.46308054080873 133.74604150652885,77.61878772427735 133.8677940046182,77.68366565853648 133.88993082242087,77.7096168225471 133.92313604918309,77.87829925341066 134.21091468102532,78.1378102283561 134.22198308992665,78.09888361745107 134.343735588016,78.20268788551039 134.42121445044177,78.30649206486851 134.52083013067022,78.35839412130736 134.67578785552178,78.6049285866684 134.78647194465157,78.69575694781088 134.83074558031512,78.77360977477656 135.04104534973158,79.02014339772722 135.11852421215735,79.17584858609189 135.42843966180226,79.51320914320968 135.58339738665381,79.7467659033282 135.76049192924984,79.91544550646358 135.81583397381473,80.05817421856045 136.0261337432894,80.27875462568772 136.23643351270584,80.55123575235484 136.35818601073697,80.62908739058184 136.38032282859785,80.62908739058184 136.3913912374992,80.60313685007714 136.51314373558853,80.66801319102524 136.5352805533912,80.69396371773473 136.40245964645874,80.73288949736889 136.25857033050852,80.81074101922422 135.94865488086361,80.91454297082237 135.83797079173382,81.09619617280987 135.8047655649134,81.19999788053974 135.7494235203485,81.26487390287366 135.62767102225916,81.36867546659778 135.47271329746582,81.44652658119594 135.33989239047514,81.5762783279788 134.50976172176888,82.18610968237044 134.27732513449155,82.3807360662613 134.13343581865774,82.54941201343172 133.96740968484664,82.66618753204239 133.80138355109375,82.74403781546425 133.0598001537728,83.25006344205758 132.93804765562527,83.3538633101416 132.76095311297104,83.45766308956809 132.62813220598036,83.56146278038068 132.53958493465325,83.66526238252845 132.15219062258257,83.88583624270541 132.1300538047799,83.9377359163409 131.997232897731,84.04153519712418 131.94189085316611,84.13235949505906 131.78693312837277,84.2621083743943 131.62090699461987,84.32698276210431 131.53235972329276,84.39185711521714 131.49915449653054,84.46970629321731 131.47701767872786,84.61242965668498 131.45488086086698,84.65135418128193 131.44381245196564,84.72920319308469 131.0674865487963,85.04059874151426 131.0121445042314,85.13142229284858 130.94573405076517,85.15737186649494 130.62475019216072,85.42984205514222 130.14880860876292,85.78015997150214 129.08624135283753,86.63648840518727 128.78739431203576,86.9219298756434 128.46641045354772,87.15547239834996 128.40000000002328,87.24629436930991 128.28931591083528,87.33711627241428 127.92405841662548,87.59660705015995 127.8465795541997,87.59660705015995 124.4817832436529,90.37312369541178 124.33789392776089,90.51584012690728 124.27148347429466,90.55476276097761 124.171867794008,90.74937574427895 124.12759415834444,90.69747897917841 124.07225211377954,90.71045317254175 123.91729438886978,90.8531692079705 123.59631053038174,91.07373002407257 123.35280553420307,91.2942904399024 123.24212144507328,91.3332128246766 123.08716372022172,91.35916107432422 122.38985395850614,90.67153058836266 122.35664873174392,90.52881433962466 122.2681014604168,90.39907214995765 122.2681014604168,90.37312369541178 122.19062259799102,90.20445860581094 121.88070714834612,89.73738482846966 121.61506533436477,89.28328360198066 121.57079169870121,89.19246315310738 121.58186010760255,89.14056572327536 120.27578785549849,87.0516757769874 120.1651037663105,86.88300607824931 120.08762490394292,86.80515844604088 120.09869331290247,86.71433614545094 120.01014604145894,86.63648840518727 119.96587240585359,86.55864061506145 119.88839354342781,86.23427428623108 119.89946195232915,86.16940091658762 119.87732513452647,86.11750219593523 119.7998462721007,86.00072999343683 119.83305149886291,86.19535026860831 119.78877786314115,86.2472489560314 119.71129900077358,86.1564262385291 119.67809377401136,86.07857814091403 119.62275172950467,86.00072999343683 119.58954650268424,85.8969323859128 119.44565718679223,85.75421053087484 119.379246733326,85.59851377052837 119.31283627980156,85.49471581950638 118.85903151426464,84.56053027120652 118.81475787854288,84.53458057008538 118.77048424287932,84.44375657272758 118.67086856265087,84.37888224737253 118.51591083785752,84.21020883929305 118.38308993080864,84.14533438922808 118.38308993080864,84.09343480423559 115.78201383550186,81.44652658119594 115.64919292851118,81.3427250839668 115.5717140660854,81.30379949964845 115.47209838585695,81.21297308778594 115.39461952343117,81.09619617280987 114.67517294391291,80.34363113986183 114.65303612605203,80.29172993131942 114.68624135281425,80.22685338943847 114.67517294391291,80.21387807692372 114.57555726362625,80.26577931872453 114.37632590316935,80.07114954774443 114.25457340508001,79.91544550646358 114.1660261338111,79.83759341102268 114.08854727132712,79.7467659033282 114.02213681780268,79.61701220309624 114.0,79.4742829728857 117.27624903921969,77.57986094714579 117.4754803996766,77.43712932412018 117.6968485780526,77.22951939145423 117.87394312070683,77.12571429206582 117.9514219831326,77.03488475738413 117.97355880093528,76.95703081645479 118.30561106838286,76.71049300784216 118.38308993080864,76.67156593967229 118.44950038433308,76.60668746506417 118.54911606456153,76.52883324980212 118.64873174478998,76.41205183337297 118.87009992316598,76.25634310357418 119.06933128362289,76.07468266662181 119.15787855495,76.03575539481244 119.41245196003001,75.77623993062298 122.06887009990169,73.37569561098644 122.30130668717902,73.21998299013649 122.44519600307103,73.09022232037387 122.44519600307103,73.07724624578259 124.73635664879112,71.71475070072484 125.35618754808092,71.41629725568782 125.62182936206227,71.26058212374483 125.8542659492814,71.16974820462201 125.97601844737073,71.05296163739695 126.08670253655873,71.02700905167876 126.17524980782764,70.96212756307068 126.39661798620364,70.91022234722914 126.89469638740411,70.68962493260915 127.13820138352457,70.54688521554635 128.78739431203576,69.70341982808895 128.7984627209953,69.66449051503878 128.86487317451974,69.62556118945213 128.9091468101251,69.59960829879856 128.9644888547482,69.61258474479837 129.0530361260171,69.54770250090951 129.00876249041175,69.57365540260798 128.97555726364953,69.54770250090951 128.87594158336287,69.6385376327089 128.10115295927972,70.02783028549311 128.11222136818105,70.00187748077587 128.09008455037838,69.96294826328813 128.11222136818105,69.97592467050708 128.10115295927972,69.94997185470856 128.11222136818105,69.96294826328813 127.92405841662548,69.66449051503878 127.73589546501171,69.34007908745116 127.66948501148727,69.17138480278663 127.5920061491197,69.04161980905337 127.56986933125881,68.9767372602073 127.43704842432635,68.76911287105031 127.43704842432635,68.73018325857993 127.1160645657219,67.99051825158676 126.93897002306767,67.65312570019887 126.87255956960144,67.40656901243347 126.76187548035523,67.16001182430773 126.56264411995653,66.62796566072211 126.48516525747254,66.35545330875175 126.19738662563032,65.61577384339762 126.1641813989263,65.43409749629063 126.10883935436141,65.30432851058868 125.96495003841119,64.79822814190265 125.86533435824094,64.55166566001571 125.88747117604362,64.20128653543361 125.93174481164897,64.01960807294381 125.98708685627207,63.889837576280115 126.18631821678719,63.578387818641204 126.40768639510497,63.37075420327892 126.52943889319431,63.33182286090596 126.6401229823241,63.240983013449295 126.78401229821611,63.228005886863684 126.93897002306767,63.16312023304636 126.950038431969,63.13716596180893 126.97217524977168,63.150143098093395 127.060722521157,63.08525740267942 127.78016910067527,62.7997599310911 128.02367409679573,62.66998813131795 128.27824750187574,62.59212498491979 128.44427363568684,62.48830737869139 128.56602613371797,62.475330171670066 128.5992313604802,62.44937575347285 128.66564181400463,62.31960357938806 128.93128362804418,62.189831266623514 129.1083781706402,62.13792230273248 129.46256725600688,61.995172537572216 129.50684089161223,61.943263490458776 129.8942352036829,61.839445329744194 130.15987701766426,61.72264979285683" stroke="#4dd2ff" stroke-linecap="round" stroke-linejoin="round" stroke-width="0.5"><title>2022-11-06 13.5km</title></polyline><polyline fill="none" points="73.587605144392,186.0 73.6239777043811,185.91470007488533 73.63125221637893,185.86352007608366 73.68217380036367,185.77822000515152 73.74764440828585,185.59908955940773 73.82038952823495,185.4796690389121 73.8349385522306,185.39436855771783 73.85676208819496,185.36024833973352 73.85676208819496,185.30906798537762 73.89313464818406,185.2578875981926 73.90040916018188,185.1640568031362 73.9440562321688,185.03610554121406 74.06044842410483,184.83138309544302 74.1550170800183,184.59253957834153 74.32960536787868,184.23427296246518 74.46054658381036,183.92718601167144 74.6205858477042,183.58597690271563 74.69333096768241,183.475083628211 75.12980168737704,182.5708711778425 75.31893899926217,182.11876111078163 75.31893899926217,182.03345703733794 75.20982131932396,181.6666484824018 74.69333096768241,180.9671484252758 74.65695840769331,180.93302631442202 74.51874267976382,180.8562515116646 74.43144853587728,180.72829334293783 74.32960536787868,180.6088655336498 74.12591903202701,180.39560114398046 73.98770330412663,180.21645861617435 73.77674245627713,179.97760128687514 73.40574234453379,179.5851912651342 72.68556565698236,178.74918087088736 72.40185968915466,178.45913440186996 71.82717324155965,177.81932228637015 71.64531044170144,177.60605044113618 70.86693765816744,176.7614883356655 70.75054546626052,176.62499261078483 70.43046693847282,176.29228330316982 70.29225121057243,176.12166260724916 70.00854524274473,175.84866873484134 69.79758439489524,175.58420503023808 69.43385879514972,175.21736682738992 69.11378026736202,174.85905811728298 68.80097625157214,174.55193508500088 68.52454479571315,174.25334211459267 68.09534858801635,173.80971620935452 67.9716818841116,173.6561528212551 67.83346615618211,173.5452457460633 67.56430921237916,173.25518035884306 67.43336799647659,173.14427272620378 67.44791702044313,173.15280408804392 67.45519153247005,173.16133544896002 67.33879934050492,173.03336493940878 66.74228935691644,172.4958865576482 66.4076618051622,172.22288027857576 65.67293609364424,171.5232974240207 65.26556342188269,171.11378266252723 65.0909751340223,170.96874568035855 64.40717100645998,170.16677172477648 63.890680654818425,169.5951470690925 63.41783737510559,169.05764552186884 62.857699951477116,168.44335360436526 62.39940569581813,167.89731237291562 61.84654278412927,167.26594753938116 60.71171891290578,166.00320287950308 60.52258160102065,165.78136729369726 60.464385505067185,165.73017437860108 60.3625423371559,165.67898143061757 60.34071880116244,165.6875135908922 60.311620753171155,165.72164222286665 60.318895265168976,165.72164222286665 60.246150145248976,165.77283514347073 60.20250307326205,165.83256017595704 60.12975795328384,165.9008173011971 60.10793441729038,165.89228516371804 60.115208929317305,165.86668874585303 60.26069916921551,165.73017437860108 60.37709136112244,165.63632061553653 60.41346392111154,165.59365977765265 60.35526782515808,165.5339345662651 60.471660017065005,165.44861275814765 60.631699280958856,165.31209767530527 61.75197412821581,164.27969479596504 61.79562120020273,164.2540978606121 61.83926827216055,164.29675941498863 61.87564083214966,164.2882271059425 62.02840558407479,164.12611306049075 62.06477814403479,164.09198374577682 62.09387619199697,164.08345141482278 62.10115070399479,164.1090484049564 62.09387619199697,164.1346453869046 61.95566046406748,164.2199686006279 61.75924864024273,164.40767934962787 61.730150592222344,164.41621164591925 61.715601568255806,164.39914705246338 61.66467998427106,164.32235633667733 61.59920937629067,164.27116248509992 61.52646425637067,164.1602423605873 61.47554267238593,164.09198374577682 61.308228896494256,163.92986930141342 61.235483776574256,163.87867519791325 61.14091512063169,163.75922216189792 60.91540524875745,163.6056394241532 60.80628756884835,163.46058878916665 60.12975795328384,162.769461552336 59.80967942549614,162.40256441265228 59.518698945699725,162.12099104445952 59.44595382572152,162.00153537578444 59.242267489869846,161.77115608091844 59.06040469001164,161.50664569940272 58.48571824238752,160.72164198239625 58.34022800248931,160.49125899009232 58.078345570655074,160.1670151326398 57.94740435475251,159.94516331265186 57.460012051073136,159.28813699441525 57.38726693109493,159.17720993902913 57.11810998726287,158.87855940755253 56.86350206742645,158.6225723474563 56.76165889951517,158.54577606917883 56.74710987551953,158.51164436620456 56.688913779566064,158.4604467843601 56.42703134773183,158.1532606029432 55.29220747645013,156.97570261119836 55.103070164623205,156.74530879616213 54.943030900729354,156.6002456822025 54.746619076875504,156.36985078227735 54.63750139690819,156.27598600259807 54.32469738111831,155.93465859941352 54.106462021271,155.66159562482062 54.019167877326254,155.59332973507844 53.81548154147458,155.37146518968802 53.53177557364688,155.1240001607439 53.30626570180175,154.9021343094064 52.8261479101202,154.3730670954683 52.28783402245608,153.826929514762 51.81499074277235,153.34052258230076 51.705873062834144,153.23812074468879 51.64767696688068,153.16985277989443 51.42944160706247,152.95651501312386 51.14573563923477,152.64930762606673 50.75291199149797,152.25676313100848 49.414401784393704,150.87430843270704 48.977931064669974,150.3878834854986 48.78879375278484,150.21720736202406 48.4905387609906,149.89292172068963 47.69034244152135,149.06513397047092 47.63214634556789,149.02246426585043 47.61032280957443,149.02246426585043 47.57395024961443,149.07366790866217 47.559401225618785,149.07366790866217 47.5303031776275,148.92005688156496 47.479381593642756,148.8347172941867 46.83195002609864,148.18613344421465 46.475498938321834,147.78503289616492 46.468224426324014,147.77649882000696 46.490047962317476,147.78503289616492 46.43185186636401,147.7167602614354 46.29363613840542,147.60581710529368 46.235440042451955,147.52047611089802 45.66075359485694,146.91455242330267 45.253380923124496,146.4537059715003 45.01332202728372,146.21474750307243 43.631164748221636,144.67856881463376 43.4056548763474,144.45667389023583 42.96190964462585,143.96167529431114 42.78732135676546,143.78245090669225 42.605458556849044,143.56908801501413 42.37994868500391,143.26184444753744 41.45608566165902,142.28889866987447 40.93232079799054,141.68293520945008 40.02300679858308,140.6843656521669 39.921163630642695,140.54780815897539 39.732026318786666,140.3344366074234 39.55743803086807,140.10399469007825 39.3901242550055,139.91622670918878 39.21553596711601,139.64310885630402 39.295555599062936,139.61750400961319 39.0336731672287,139.45533978946332 38.560829887515865,138.96031012888125 38.37169257568894,138.7725394532099 37.6806139361579,138.00438208166452 37.622417840204434,137.95317132694618 37.49875113624148,137.81660915349494 37.367809920338914,137.71418736978376 37.08410395248211,137.40692122884502 36.72765286476351,137.0484425668983 36.5094175048871,136.77531488488603 36.254809585079784,136.49365098225826 35.149083761818474,135.37552082033653 34.99631900989334,135.1877416970965 34.85810328199295,135.05971022298036 34.74171109008603,134.88900127080706 34.3052403703623,134.43662077874615 34.15975013046409,134.2488394427637 34.09427952251281,134.18909074307885 33.86876965063857,134.0439865715016 33.38865185898612,133.51478088296426 32.77031833937508,132.8660723404464 32.042867139854934,132.13200104061252 31.795533732016338,131.8673922857197 31.16992570043658,131.12477592454525 30.813474612659775,130.73212539575616 30.49339608490118,130.3480088754004 30.37700389296515,130.16875386544416 30.006003781221807,129.73341859059292 29.780493909376673,129.52855410868506 29.2931016056682,128.93956578851794 29.12578782980563,128.6664103068615 28.98757210187614,128.37618158134137 28.798434789991006,127.94937271116942 28.47108175023459,126.9762399362371 28.303767974342918,126.66893237953627 28.245571878389455,126.5750326118432 27.998238470521756,126.31040539829701 27.72180701472098,126.06285011231375 27.40172848693328,125.6701746323597 27.205316663050326,125.3628620368545 27.08164995914558,125.08969428990531 26.943434231216088,124.59457536077389 26.89978715928737,124.33847815525951 26.856140087300446,124.19335603995569 26.81249301531352,123.98847730941634 26.68155179938185,123.64701158737444 26.594257655437104,123.06651650017011 26.557885095477104,122.92992880594102 26.426943879545433,122.53723788033676 26.419669367576716,122.41772286649211 26.339649735658895,122.14454501852015 26.28145363967633,121.72623962297075 26.21598303169594,121.4786700886325 26.17233595973812,121.35915348624985 26.05594376780209,121.17987824642478 25.98319864788209,120.81278959142946 25.975924135855166,120.70180896727834 25.917728039901704,120.47984725505376 25.888629991939524,120.30057003583352 25.714041704050032,119.6517538693297 25.706767192023108,119.54930872825935 25.757688776036957,119.4297892304603 25.764963288005674,119.38710365203588 25.714041704050032,119.17367541685235 25.670394632063108,118.90902361077315 25.670394632063108,118.82365187285177 25.604924024111824,118.58461051964696 25.590375000145286,118.3284939878722 25.568551464151824,118.28580781915662 25.554002440097975,118.09798840498843 25.5249043921649,118.00407853179058 25.495806344173616,117.81625845316739 25.452159272215795,117.72234824770567 25.37213964026887,117.39793032225862 25.335767080279766,117.25279555931047 25.313943544286303,117.03082423368323 25.21210037637502,116.6551790423182 25.175727816385916,116.4502809182959 25.117531720461557,116.17708259946812 25.073884648474632,116.06609551469592 25.081159160472453,116.02340813321644 25.059335624449886,115.95510827523685 25.037512088485528,115.76728336375527 25.037512088485528,115.48554516579316 24.97931599250296,115.26356891376781 24.94294343254296,115.20380597096664 24.90657087258296,115.09281752960669 24.870198312564753,114.77692650358222 24.819276728638215,114.63178696334944 24.753806120657828,114.33296942980087 24.731982584664365,114.11952764782473 24.731982584664365,114.042688466252 24.717433560697827,114.00853769507376 24.681061000708723,114.0" stroke="#4dd2ff" stroke-linecap="round" stroke-linejoin="round" stroke-width="0.5"><title>2022-10-15 12.4km</title></polyline><polyline fill="none" points="185.72975313989446,142.25722080845298 185.12689475965453,142.19628242397448 184.21221307921223,141.79408826995495 183.32871372887166,141.52595804600423 183.2143785188673,141.52595804600423 183.29753139888635,141.57470904270303 182.99610220873728,141.53814579711616 180.69900389778195,140.6240608480948 180.70939800777705,140.57530944501195 180.73018622782547,140.6240608480948 180.63663923775312,140.6118729992595 179.82589865743648,140.27061270364356 178.578605456918,140.00247889784077 178.29796448675916,139.85622382892325 177.30012992635602,139.7587203454823 176.75963620614493,139.6246529196069 176.16717193590011,139.41745749691472 175.5851017756504,139.41745749691472 175.49155478563625,139.35651759506436 174.33780857513193,139.2590136843428 173.9116500649834,139.31995363826718 173.50627977476688,139.2590136843428 169.58770030317828,139.83184796589921 168.20528367254883,139.9902909825978 167.71676050237147,140.07560636194103 167.24902555218432,140.23404903998744 167.10350801213644,140.17310957445443 166.68774361198302,140.28280058891687 166.02252057165606,140.31936423697334 165.23256821138784,140.50218230131577 164.28670420096023,140.5265580211053 163.44478129060008,140.67281223030295 162.76916414033622,140.72156359173096 160.8670420095441,140.7703149322624 160.8878302294761,140.81906625198462 160.8982243395294,140.78250276414474 160.81507145951036,140.7703149322624 160.3473365093232,140.8434419040277 159.55738414893858,140.81906625198462 158.53876136860345,140.8921931924997 157.8839324383298,140.8556297280884 155.53486357728252,140.86781755083211 151.88653096579947,141.19688827315986 151.3980077956221,141.3065783029524 151.08618449541973,141.46501927082863 150.22347336512757,141.6600232367491 149.8908618449932,141.6600232367491 149.1632741446374,141.80627599241416 147.88479861413362,142.14753169295 146.49198787350906,142.4278481116853 145.04720658290898,142.83004003073438 144.38198354264023,142.91535328581085 143.85188393248245,143.07379201870208 143.86227804241935,143.46379411588714 143.7895192723954,143.5612944317836 143.7791251624003,143.78066983785538 143.9558250324917,144.54848043620586 144.58986574277515,146.42532902811217 144.66262451279908,147.15656037902227 144.74577739281813,147.53436140700796 144.82893027289538,147.66841953549738 144.94326548289973,147.7293549963215 145.2446946729906,148.92368345752038 145.95149415329797,151.12950212736905 146.0034647033317,151.53166336494905 146.58553486358142,153.3352781443682 145.8059766133083,153.55463475367287 144.8809008228709,153.85929601130192 144.07016024255427,154.2248884464716 143.49848419224145,154.55392063642648 143.05153746210271,154.71234320421354 142.86444348207442,154.83420656819362 142.8332611520309,155.18760958770144 142.96838458208367,155.43133517017122 143.0203551321174,155.9431571985333 143.217843222199,156.5402799962103 143.373754872242,156.61339685871644 143.64400173234753,156.56465228892193 145.54612386313966,155.88222612509708 145.96188826329308,155.88222612509708 146.3464703335194,155.66287399122666 146.47119965351885,155.67506023197348 146.67908185359556,156.8449332807868 146.71026418363908,157.72233019510168 146.81420528370654,158.39255940329167 147.03248159377836,158.75813731189555 147.18839324382134,159.0993423030959 147.39627544389805,160.20825147752475 147.0948462538072,158.806880944554 146.938934603706,158.6240922147408 146.82459939370165,158.4169313003149 146.64789952361025,157.50298159910017 146.58553486358142,157.41767925344175 146.30489389348077,157.27144651250273 146.47119965351885,157.21051614845783 146.68947596364887,157.1739579143832 146.5647466435912,156.41841845461022 146.51277609355748,156.369673801506 146.1697704633698,156.39404613065562 145.92031182331266,156.50372154740035 145.7851883932599,156.41841845461022 145.795582503255,156.16250879353174 145.68124729325064,156.0284606466812 145.6084885231685,156.00408823945327 145.39021221309667,156.0893916420464 145.0576006929041,155.96752961879974 142.0848852316849,157.05209704962908 141.721091381507,157.11302749827883 140.85838025121484,157.45423740937986 139.60069294070126,157.84419034399616 139.36162841058103,157.97823635741952 138.53009961021598,158.20977000970743 136.6799480294576,158.9652976067955 135.50541359896306,159.3186878300403 134.78822000866057,159.62333369567932 132.75097444781568,160.15950844355393 132.33521004766226,160.29355173683143 132.11693373753224,160.43978060443624 131.62841056735488,160.51289496794197 131.58683412731625,160.39103766938206 131.08791684708558,160.9881371888696 130.65136422694195,161.7802031582978 130.10047639673576,161.9629868319389 129.6119532265002,162.40166645409045 129.14421827631304,162.4504085302251 128.97791251627496,162.54789261999395 128.84278908616398,163.01094090916013 128.63490688608726,164.77781843196863 128.72845387615962,165.00933828691632 128.73884798615472,165.38708019979094 128.64530099614058,165.61859881858254 128.43741879606387,165.86230212043301 128.4893893460394,166.62996411942004 128.3334776959964,167.15392093126866 127.69943698577117,167.67787533738738 127.00303161540069,168.53081922495767 126.58726721524727,168.83544049696502 126.17150281509385,169.4446806016931 125.97401472501224,169.61526724811847 125.5270679948153,170.34634998781257 124.76829796447419,170.90684358325234 124.33174534427235,171.02868965282687 123.97834560414776,171.28456597540935 123.53139887395082,171.66228711740405 123.18839324382134,172.08874496884528 122.88696405373048,172.24714319349732 122.62711130362004,172.52738566781045 122.33607622352429,172.4420945528327 122.14898224343779,172.47864789560845 121.87873538327403,172.4299101026263 121.52533564314945,172.21058977655048 121.30705933301942,171.8572394757939 121.20311823301017,171.06524344829813 120.95365959289484,170.60222784024518 120.72498917282792,170.38290400186816 120.1429190125782,170.11484096030472 119.88306626246776,169.90770090604929 118.86444348207442,168.81107082512608 118.41749675187748,168.46989487297105 118.25119099178119,168.11653299009777 118.24079688178608,167.93375917303638 118.0952793417382,167.6900602949463 118.02252057165606,167.251401002919 117.94976180169033,166.5324835169231 117.97055002168054,165.30178374810203 117.86660892155487,163.5592851371839 117.56517973146401,161.80457433171978 117.18059766135411,160.3301089712986 116.36985708097927,158.23414194577344 115.78778692072956,156.79618880992348 115.22650498052826,154.51736155105027 114.98744045046624,152.57971326159895 115.08098744048038,151.83633002527495 115.03941100044176,150.94670109611616 115.18492854048964,148.83837469643913 115.16414032049943,147.89997411357763 115.02901689044666,146.55938846005301 114.96665223035961,146.52282681241923 114.99783456046134,146.36439287060057 114.748375920346,145.07253867031977 114.25985275011044,143.4272314759146 114.02078822004842,143.19566781730828 114.09354699007235,142.98847888217279 114.0,142.59847515964793 114.06236466002883,142.47659872287477 114.48852317023557,142.40347279827984 114.62364660028834,142.5375369575122 114.77955825033132,142.58628752185177 115.34084019059082,142.37909747963567 115.6734517107252,142.33034682679136 116.0476396708982,142.63503806528024 117.30532698135357,142.20847010344733 117.46123863145476,142.23284545857314 117.56517973146401,142.08659324990003 117.81463837157935,141.96471626606944 117.92897358164191,142.03784247199656 117.98094413167564,142.3425344919815 118.04330879170448,142.39128513958713 119.23863144218922,142.0134670752741 119.90385448251618,141.8794022999209 120.48592464270769,141.6234600185926 121.2343005630537,141.45283151185868 122.46080554352375,141.0018835152805 124.34213945432566,140.4412429790973 124.82026851450792,140.27061270364356 125.06972715456504,140.12435797860235 125.93243828497361,139.90497553943715 126.21307925513247,139.77090828546352 127.27327847556444,139.47839736619062 128.22953659598716,139.13713367872697 133.40580337808933,137.5892462755437 134.9857080988004,137.28454155580403 135.9731485491502,137.01640072899318 136.24339540925575,136.99202425892145 137.9896058900049,136.54105862273718 138.49891728023067,136.48011718376802 139.39281074056635,136.21197446539009 140.0580337808933,136.11446786603483 140.67128627112834,135.91945441713324 142.6565612819395,135.45629613945493 144.07016024255427,135.297846823094 145.6084885231685,135.32222365534835 147.26115201390348,135.24909314300749 147.4898224339704,135.1272088515907 147.6665223040036,135.17596258378035 148.34213945432566,135.00532442986878 148.83066262450302,134.95657062470855 149.83889129490126,134.62748189465492 150.8055435253773,134.42027739217156 151.49155478563625,134.1886954438305 152.99870073626516,133.78647304728656 153.21697704633698,133.6280214106082 154.59939367696643,133.2379856745829 154.83845820702845,133.10391058218374 154.9112169770524,133.14047653212765 155.55565179733094,133.00640132508124 156.92767431790708,132.5676086361127 156.9692507579457,132.6285521660975 157.12516240798868,132.5676086361127 157.38501515804091,132.7016843591191 157.59289735817583,132.72606174636167 158.88176699873293,132.38477785068244 159.203984408814,132.17756927275332 160.00433087913552,132.11662550171604 160.54482459940482,131.99473786190356 160.74231268948643,131.87285009179323 160.80467734945705,131.7265845956863 161.04374187957728,131.5437524616791 161.83369423996191,131.32435351392633 162.11433521006256,131.29997582696524 166.4902555218432,130.04451790427993 166.6669553919346,130.04451790427993 166.6773495019297,130.08108483531396 166.72932005196344,130.020139943721 167.10350801213644,129.93481704069563 167.5504547423334,129.71541499689192 167.86227804241935,129.6788479485549 168.8601126028807,129.28879870314995 169.21351234300528,129.21566432107647 169.70203551324084,128.89874812334165 169.75400606321637,128.65496583335334 169.89952360326424,128.43556132670346 170.21134690346662,128.4111830221227 170.98051104374463,128.14302132769808 171.37548722390784,127.93580504093552 171.6665223040618,127.69202069195308 171.94716327410424,127.606696046656 172.09268081421033,127.47261433218227 172.18622780422447,127.49699283741938 172.37332178436918,127.72858837751846 172.67475097446004,127.63107452324039 172.86184495448833,127.69202069195308 172.986574274546,128.08207540009607 173.26721524470486,128.42337217510067 173.25682113470975,128.63058757571707 173.360762234719,128.9109372241801 173.57903854479082,129.17909711246466 173.59982676478103,129.71541499689192 174.05716760503128,130.32486407607212 174.1091381550068,130.4711313703665 174.0987440450699,131.32435351392633 174.17150281509385,131.5193748216625 174.40017323516076,131.7631509872881 174.42096145515097,131.89722765627084 174.265049805108,132.1897580230725 174.639237765281,133.2136083968071 174.87830229534302,133.67677578385337 175.0238198354491,133.85960449765116 174.93027284537675,134.274015163719 174.96145517536206,134.4568429199644 175.35643135558348,134.85906295183668 175.3980077955639,135.15158572027576 175.33564313559327,135.41973093213164 175.35643135558348,135.66349875937158 175.51234300562646,135.89507771260833 175.70983109570807,135.99258449955232 175.7618016457418,136.1632211761098 175.69943698571296,136.2363511022195 175.53313122561667,136.26072773381748 175.30446080554975,136.11446786603483 175.34603724558838,135.96820781062706 175.50194889563136,135.90726606550743 175.68904287565965,135.99258449955232 175.7721957557369,136.11446786603483 175.68904287565965,136.2363511022195 175.5954958856455,136.26072773381748 175.3668254655786,136.18759782338748 175.27327847556444,136.1022795352328 175.30446080554975,135.96820781062706 175.48116067564115,135.90726606550743 175.7721957557369,136.0291495231868 175.87613685580436,136.49230547416664 175.782589865732,136.63856485736324 175.5643135556602,136.67512967383664 175.51234300562646,136.58981175046938 175.5954958856455,136.3826108136709 175.7721957557369,136.30948098139925 175.87613685580436,136.41917571223166 175.7721957557369,136.65075313080888 175.64746643567923,136.69950621164753 175.52273711567977,136.6141883065211 175.5954958856455,136.41917571223166 175.7618016457418,136.30948098139925 175.89692507579457,136.40698741401138 175.84495452576084,136.58981175046938 175.47076656558784,136.79701231075887 175.3772195755737,137.02858896205726 175.43958423560252,137.954890864552 175.49155478563625,138.18646516455192 175.62667821568903,138.19865327254956 175.67864876566455,138.5886720415583 175.60588999569882,138.90556130920595 175.67864876566455,139.16150969026785 175.86574274580926,139.2468256896318 176.02165439585224,139.45402142234525 176.94673018617323,139.57590108930162 177.2793417063658,139.68559267817182 177.8094413165818,139.6977806260038 178.32914681680268,139.91716346377507 178.9631875270279,140.03904263574077 179.6699870073935,140.29498847288778 180.0233867475181,140.33155211705161 180.17929839756107,140.4899944394856 180.48072758771013,140.6118729992595 180.6158510177629,140.5265580211053 180.90688609785866,140.69718791361083 182.17496751842555,141.25782719162817 183.26634906884283,141.61127227654652 183.3702901689103,141.69658644328592 183.7548722390784,141.73314963804296 184.18103074922692,141.96471626606944 184.82546556956368,142.03784247199656 185.0853183196159,142.13534400696517 186.0,142.20847010344733" stroke="#ff0000" stroke-linecap="round" stroke-linejoin="round" stroke-width="0.5"><title>2022-10-05 21.1km</title></polyline><polyline fill="none" points="26.309427284868434,197.28513037126686 26.174949104897678,197.41653467333526 26.01805789489299,197.4690963744215 26.21977516496554,197.3114112373296 26.376666374970227,197.25884950243926 26.690448794979602,196.81207430259383 26.824926975066774,196.47042213144596 26.824926975066774,196.36529829098436 26.89216606505215,196.3390173237858 28.03523059526924,196.78579338316922 29.671381785767153,197.07488334197842 30.366185715887696,197.12744511615892 30.56790298584383,197.12744511615892 31.262706916080788,197.28513037126686 32.45059750624932,197.23256863077404 33.347118706442416,197.25884950243926 33.52642294636462,197.41653467333526 33.52642294636462,197.5742197430518 33.39194476651028,198.38892432623834 33.436770826461725,198.8882580592326 33.36953173647635,199.75551950153022 33.436770826461725,200.70161940511025 33.39194476651028,200.96442428798764 33.414357796427794,201.25350933465234 33.48159688641317,201.41119194422208 33.70572718640324,201.54259404167533 34.49018323677592,201.64771566905256 35.678073826944456,201.72655686004146 36.081508367089555,201.72655686004146 37.15733380720485,201.5163136277697 37.695246527320705,201.38491151634662 38.16592015745118,201.2272288899403 38.54694166756235,201.01698523087543 39.28657165763434,200.54393634058943 39.353810747736134,200.41253370969207 40.048614677856676,199.9394836568099 40.63135345792398,199.3875907782931 40.90030981809832,199.22990687127458 41.079614058020525,199.045942185272 41.30374435824342,198.7042931176693 41.483048598165624,198.36264357533946 41.63993980817031,198.23123977884825 41.84165707824286,198.0209935583698 42.17785252828617,197.81074715813156 42.67093918833416,197.3376921005547 43.38815614860505,196.75951246092154 44.26226431876421,195.83967841461708 44.62087279895786,195.6294301494636 45.36050278902985,194.9724031624355 45.62945914908778,194.89355980603432 45.741524299024604,194.91984092761413 45.853589449077845,194.99868427563342 46.30185004917439,195.5768680551555 47.08630609931424,196.36529829098436 47.40008851944003,196.78579338316922 48.13971850962844,197.52165806446283 48.520740019739605,198.0209935583698 49.282783039845526,198.67801240044355 50.649977870169096,200.30741155431315 51.815455430420116,201.43747236936179 53.13782420067582,202.9354519575718 53.832628130796365,203.5924576704274 54.146410550922155,204.06550069680088 54.52743206103332,204.53854281335953 56.768735061516054,207.00885908439523 56.99286536150612,207.297937026422 57.86697353166528,208.21772821756895 59.21175533195492,209.79450511391042 62.125449232640676,213.0531453340518 63.76160042290576,214.97151817762642 64.09779587306548,215.28686570627906 65.15120828314684,216.4431365190394 66.1822076634271,217.78335270530079 66.9890767437173,218.54543316239142 67.59422855370212,219.22867570268863 68.69246702396777,220.38492798614607 70.1941400343785,222.1455744329869 72.21131273475476,224.3003783080785 73.39920332503971,225.66682952186966 74.20607240521349,226.5077188037685 74.8784633053001,227.3486052113294 76.4473754055798,229.0303694033646 76.69391873572022,229.37197634999757 76.7611578257056,229.50336351084115 76.7611578257056,229.9238019541226 76.53702752559911,231.05372670966608 76.58185358566698,231.2113902164856 76.67150570568629,231.3427763949876 78.26283083599992,232.31503193482058 79.3834823362995,233.07706737461558 80.84032928664237,234.18070072331466 81.24376382667106,234.5485774060362 81.26617685670499,234.7062386730977 80.92998140666168,235.62592738386593 80.54895989655051,236.62444266286911 79.98863414640073,237.88571932792547 79.54037354630418,239.173265920821 78.86798264610115,240.93377790760132 78.26283083599992,242.27386067729094 76.46978843561374,246.9772306736122 76.2680711656576,247.2137105900474 76.02152783551719,247.31881270214217 75.32672390539665,247.45019027916715 74.228485435131,247.45019027916715 74.07159422512632,247.5027412903437 74.04918119509239,247.8180471216183 73.93711604515556,247.97569988579198 73.8922899850877,248.34355594258523 73.84746392501984,248.44865757209482 73.78022483503446,248.52748376475938 73.57850756507833,248.60630993222003 73.44402938499115,248.89533899663365 73.10783393494785,252.96798517274146 73.04059484496247,253.44093326342409 73.04059484496247,254.01897969533456 72.95094272494316,254.83349736293894 72.99576878501102,254.96487092770985 72.92852969490923,255.59546306269476 72.83887757488992,255.80566008192545 72.83887757488992,256.0684061034699 72.92852969490923,256.5938973049051 72.95094272494316,257.3558575536299 72.88370363484137,257.43468089295493 72.56992121471558,257.6711507595901 72.30096485477407,257.7762484050618 72.21131273475476,257.8813460057572 71.98718243476469,258.48565633840917 71.85270425467752,259.45780462920084 71.89753031474538,259.6942725517729 71.96476940473076,259.77309514213994 72.09924758481793,259.82564352158806 72.81646454485599,259.9044660698419 72.88370363484137,259.95701442133577 72.92852969490923,260.0621110906359 72.9061166648753,260.11465940845665 72.83887757488992,260.0883852509869 72.77163848478813,259.9044660698419 72.68198636488523,259.82564352158806 72.27855182474013,259.851917707143 72.09924758481793,259.74682094813033 71.98718243476469,259.5103530761262 72.0095954646822,259.19506222664495 71.96476940473076,258.8797709732462 71.87511728459504,258.7746737990092 71.78546516469214,258.7746737990092 71.69581304467283,258.8534966838779 71.74063910462428,258.8534966838779 71.58374789461959,258.72212519512686 71.35961759451311,258.48565633840917 71.0906612345716,258.3805589958938 71.02342214435339,258.4331076727103 70.9337700244505,258.8009480967594 71.02342214435339,258.6958508888929 71.13548729452305,258.40683333572815 71.13548729452305,258.56447931592993 71.02342214435339,258.7746737990092 70.57516154425684,259.3527077018807 70.55274851445574,259.61544993615826 70.57516154425684,259.8781918899185 70.70963972446043,260.2197560104396 70.61998760444112,260.140933563147 70.50792245438788,259.851917707143 70.50792245438788,259.5629015118029 70.6872266944265,259.03741665049165 71.0906612345716,258.48565633840917 71.18031335447449,258.32801030771225 71.35961759451311,257.5397786394751 71.40444365458097,257.0931129067467 71.24755244457629,257.1982107991498 71.00100911455229,257.17193633025454 70.95618305448443,257.2244852652657 70.88894396449905,257.2507597285148 70.5303354843054,257.0931129067467 70.23896609432995,257.0668384266173 70.17172700422816,256.88291698729154 70.1044879143592,256.88291698729154 69.9475967042381,256.9354659839737 69.7010533742141,257.1982107991498 69.54416216420941,257.2507597285148 69.40968398412224,257.3295831016003 69.25279277411755,257.3558575536299 69.11831459403038,257.5397786394751 68.98383641405962,257.43468089295493 68.73729308391921,257.46095533380867 68.58040187403094,257.3295831016003 68.49074975389522,257.2244852652657 68.42351066390984,257.2507597285148 68.02007612388115,257.1456618585944 67.84077188372612,257.0668384266173 67.68388067383785,256.9091914870078 67.68388067383785,256.88291698729154 67.70629370375536,256.9354659839737 67.52698946371675,256.9354659839737 67.30285916372668,256.75154444643704 67.12355492368806,256.8303679793462 67.10114189365413,257.0931129067467 66.78735947364476,257.3558575536299 66.42875099356752,257.487229771883 66.22703372349497,257.487229771883 66.04772948333994,257.61860191990854 65.80118615343235,257.7236995879066 64.9494910130743,257.96016917676025 64.9494910130743,258.0915410723537 65.08396919327788,258.3542846532073 65.08396919327788,258.51193066703854 65.17362131318077,258.6958508888929 65.1063822231954,259.16878797099344 64.99431707325857,259.32643346303666 64.88225192320533,259.4315304016782 64.74777374311816,259.3527077018807 64.68053465313278,259.24761072969704 64.74777374311816,259.24761072969704 64.77018677303568,259.53662729535426 64.50123041309416,259.7993693332246 64.34433920308948,260.0883852509869 64.23227405303624,260.0883852509869 64.03055678296369,260.00956276158104 63.85125254304148,259.983288592819 63.828839512891136,259.7205467513122 63.73918739298824,259.61544993615826 63.62712224281859,259.53662729535426 63.246100732823834,259.4315304016782 63.13403558277059,259.5629015118029 63.02197043283377,259.7205467513122 62.82025316276122,259.851917707143 62.708188012824394,260.11465940845665 62.506470742751844,260.19348186410207 62.08062317268923,260.2985784324119 61.76684075256344,260.66641606799385 61.6547756025102,260.9817050323909 61.63236257235985,261.3758156696713 61.67718863254413,261.45463772147195 62.125449232640676,261.21817149044364 62.932318312698044,261.0342531537899 63.11162255285308,260.9554309674131 63.156448612804525,260.9817050323909 63.2236877027899,261.323267621221 63.44781800289638,261.7436516950984 63.64953527296893,261.9275695016113 63.85125254304148,261.98011742117524 63.98573072301224,262.1114871706668 64.25468708307017,262.2165829199512 64.56846950307954,262.4530481914553 64.77018677303568,262.76833486682153 64.79259980318602,263.0310734544182 64.97190404310822,263.6090973595565 64.97190404310822,263.95065630176396 65.01673010317609,264.003203789267 65.24086040328257,263.95065630176396 65.30809949326795,263.97693004689063 65.24086040328257,263.95065630176396 65.15120828314684,263.97693004689063 64.99431707325857,264.1345724588755 64.79259980318602,264.5549517305044 64.41157829307485,264.8176884106506 64.34433920308948,264.843962063198 64.25468708307017,264.63377276404935 63.91849163302686,264.4761306717701 63.873665572959,264.5812254111661 63.98573072301224,264.9753302840836 63.806426482857205,265.05415118293604 63.67194830288645,265.05415118293604 63.604709212784655,265.1329720565118 63.44781800289638,265.08042481023585 63.40299194282852,265.02787755275494 63.358165882877074,265.05415118293604 63.492644062964246,265.31688733014744 63.78401345293969,265.50080246622383 63.98573072301224,265.5533496226999 64.29951314302161,265.71099102489825 64.6132955631474,266.0 64.7029476830503,266.0 64.88225192320533,265.8423587829311 65.17362131318077,265.78981168812606 65.44257767335512,265.78981168812606 65.57705585332587,265.8423587829311 66.40633796341717,265.8423587829311 66.94425068353303,265.60589676798554 67.37009825382847,265.2643401230598 67.50457643379923,264.4761306717701 67.59422855370212,264.3184884785878 67.66146764380392,264.003203789267 67.99766309384722,263.63537114120845 68.22179339383729,263.5040022050089 68.44592369394377,263.4777284094307 68.78211914398707,263.3200855766336 69.11831459403038,263.37263319888734 69.2079667141661,263.39890700568503 69.54416216420941,263.37263319888734 70.21655306429602,263.0310734544182 70.59757457440719,262.71578711565235 70.75446578441188,262.4530481914553 70.79929184447974,262.2165829199512 70.88894396449905,262.0852132264117 71.02342214435339,261.63855574397894 70.95618305448443,260.850334679606 70.86653093446512,260.6926901637635 70.75446578441188,260.61386786799994 70.6872266944265,260.2197560104396 70.55274851445574,259.77309514213994 70.6872266944265,259.2213364795607 71.04583517450374,258.8009480967594 71.0906612345716,258.5907536360901 71.29237850464415,258.4593820070004 71.40444365458097,258.4593820070004 71.49409577460028,258.5907536360901 71.69581304467283,258.72212519512686 71.83029122464359,258.8534966838779 71.80787819460966,258.9060452598351 72.07683455466758,258.40683333572815 72.09924758481793,258.17036417608324 72.18889970483724,257.96016917676025 72.43544303474482,257.8025228095066 72.97335575486068,257.3295831016003 73.35437726497184,257.1982107991498 73.39920332503971,257.1193873840821 73.42161635495722,257.01428945799125 73.26472514495254,255.9895823263505 73.17507302493323,255.54291377980553 73.17507302493323,255.0962444224133 73.35437726497184,253.30955888492463 73.42161635495722,252.12718632248288 73.64574665494729,250.31420402534422 73.82505089510232,249.70987362450978 73.86987695505377,249.28946899199218 73.82505089510232,249.13181706966134 73.93711604515556,248.2647296910145 73.84746392501984,247.42391476935882 73.82505089510232,246.42544331801764 73.69057271501515,245.63717352072126 73.35437726497184,244.69124643037503 72.56992121471558,243.1146931983385 72.43544303474482,242.69427729699237 72.2561387947062,241.98482383451483 72.18889970483724,241.40674913031398 72.18889970483724,240.40825326034974 72.4130300048273,239.30464784735523 72.45785606477875,238.7528432843974 72.5026821247302,238.62146106323053 72.74922545487061,238.27986695975414 72.88370363484137,238.0171019420086 73.69057271501515,235.8886949554726 74.99052845523693,232.5778030428046 75.34913693543058,231.55299413458852 75.43878905533347,231.447885287198 75.55085420538671,231.39533084670256 75.70774541550782,231.36905362224206 76.11117995565291,231.52671692697913 76.35772328567691,231.52671692697913 76.58185358566698,231.36905362224206 76.89563600567635,231.3427763949876 77.16459236573428,231.2113902164856 77.16459236573428,230.97489491848683 77.0973532757489,230.81723126008 77.07494024583139,230.6332901976275 77.23183145571966,229.29314401977172 77.14217933581676,229.0303694033646 76.06635389570147,227.92671294911997 74.25089846516494,225.77194083933136 72.88370363484137,224.24782234057784 71.91994334454648,223.27553491642175 70.14931397431064,221.1995570131403 67.05631583358627,217.8359100540256 66.31668584351428,216.94243359881511 65.62188191327732,216.20662702225673 63.2236877027899,213.49989103138796 62.4840577126015,212.6063988252863 61.07203682232648,211.13475752806698 58.24799504177645,207.9023716251977 57.2169956616126,206.7986203677865 56.88080021145288,206.48326195582922 56.05151810136158,205.45834432436095 52.6223245105939,201.62143526639557 51.36719483032357,200.35997263755416 49.596565459971316,198.31008206514525 47.62421881954651,196.1024884932558 46.90700185939204,195.44546277004702 45.60704611905385,194.02628121709859 45.517393999150954,194.0 45.36050278902985,194.28909323368862 45.13637248892337,194.52562380854215 44.48639461887069,195.1563708957401 44.21743825881276,195.4980248924985 43.25367796851788,196.3127363539097 41.34857041819487,198.12611669105536 40.877896787947975,198.44148581952322 40.138266797875986,199.2561875294923 39.30898468778469,200.01832539535826 38.70383287756704,200.49137529666768 38.121094097499736,200.83302188168454 37.134920777287334,201.1483875388658 36.7763122972101,201.25350933465234 35.767725946963765,201.38491151634662 35.09533504687715,201.33235065211193 34.736726566799916,201.30607021582546 34.602248386712745,201.25350933465234 34.28846596670337,201.27978977664316 33.30229264637455,201.2009484424052 32.69714083627332,201.2009484424052 32.04716296622064,201.0695461624273 31.262706916080788,200.99070476078487 30.792033285833895,200.99070476078487 30.321359655819833,200.91186333385122 28.617969375452958,200.85930236855347 26.623209704994224,200.70161940511025 25.950818804907613,200.62277788552456 25.592210324830376,200.49137529666768 25.278427904704586,200.57021685838117 24.91981942462735,200.5964973733935 24.606037004617974,200.51765582004737 23.97847216448281,200.51765582004737 23.194016114226542,200.33369209736702 22.521625214256346,200.2285699082713 21.55786492396146,199.9920448186458 20.616517663700506,199.67667767863895 20.16825706360396,199.46643269390916 19.787235553609207,199.36131013419072 19.630344343488105,199.20362621027743 19.271735863410868,198.99338082117902 18.756236173328944,198.91453875388834 18.733823143295012,198.75685454359336 18.801062233396806,198.59917023208982 18.845888293348253,198.5728895037173" stroke="#4dd2ff" stroke-linecap="round" stroke-linejoin="round" stroke-width="0.5"><title>2022-10-03 11.5km</title></polyline><polyline fill="none" points="179.02255554997828,194.0 179.1759469519602,194.1163417255084 179.22106207016623,194.1903772979058 179.31129230657825,194.22210681196157 179.3654304484371,194.26441281496955 179.48272975586588,194.48651903426799 179.56393696862506,194.77208344187238 179.61807511054212,195.13168189568387 179.61807511054212,195.32205701940256 179.67221325234277,195.50185541155224 179.66319022868993,195.59704266352492 179.73537441785447,195.9460618052981 179.68123627599562,196.03067232122703 179.74439744150732,196.19989313630504 179.75342046516016,196.4431475517922 179.81658163061365,196.71813008504978 179.7804895360605,196.80273994175514 179.87974279612536,196.91907837679173 179.8887658197782,197.3844307512336 179.96095000894275,198.11418348360166 180.1594565291307,199.39388182311814 180.2226176945842,200.14477150331368 180.18652560003102,200.43031960693042 180.12336443451932,200.58895708679484 180.06020326900762,200.6735636388985 179.5278448740719,201.1600499118358 179.39249951939564,201.2129287106436 178.4811741313315,201.79459363575006 178.34582877671346,201.82632071529224 177.99393085460179,202.11186397426354 177.54277967242524,202.36567951384495 177.29013501037844,202.55604074200528 177.11869756120723,202.73582601064118 176.87507592275506,203.07424445515062 176.72168452083133,203.2328777033108 176.16225705493707,203.9943137601731 175.9547275111545,204.37502959512494 175.73817494366085,204.8720730677087 175.54869144718396,205.42199060121493 175.48553028167225,205.79212568481307 175.2870237614843,206.36318853116973 175.02535607584286,207.71680584047863 174.971217933984,208.5416573247203 174.98024095763685,209.3876517174067 175.07047119404888,209.57799946080195 175.4133460925077,209.84237072028918 175.85547425108962,209.96926867443835 176.60438521351898,210.13846569393354 176.97432918287814,210.27593805964716 177.11869756120723,210.38168590353598 177.24501989217242,210.5931812529525 177.39841129415436,211.01617059814453 177.6420329324901,211.52375543014205 177.7051940980018,211.87271849464014 177.63300990883727,212.14765822576737 177.45254943601321,212.50719364678662 177.29013501037844,213.03591983852675 177.23599686851958,213.41660095068073 177.23599686851958,214.42116908971366 177.27208896313095,214.54806118324632 177.35329617594834,214.64323014679394 177.39841129415436,214.67495311433595 177.47961850691354,214.78069626622164 177.66910200344864,214.92873648936802 177.68714805069612,215.01333080332552 177.95783876004862,215.26711331224215 178.19243737478973,215.62663742121367 178.39996691857232,216.15534697795374 178.6074964624131,216.99070233148086 178.66163460427197,217.9846602920079 178.49019715498434,219.19008530087012 178.30071365850745,219.72934963959415 178.09318411466666,220.08885756949894 177.87663154723123,220.3532008041002 176.61340823711362,221.50572907301103 176.45099381153705,221.74892139996518 176.34271752781933,222.0026866705084 176.28857938596047,222.30931883933226 176.2976024095551,222.60537658545218 176.5231780007016,223.23978306524077 176.59536218986614,223.65214510080114 176.5682931189076,224.02221213437588 176.42392474063672,224.7623420588061 176.43294776423136,225.06896569508535 176.4600168351899,225.13240494971978 176.43294776423136,225.23813695064746 176.46903985884273,225.555332277072 176.4600168351899,225.92539220905746 176.49610892974306,225.99940402974607 176.46903985884273,226.42232765991503 176.43294776423136,226.65493488775974 176.3788096223725,226.8452494866433 176.27955636230763,227.046136722558 176.23444124410162,227.215304605641 176.14421100763138,227.32103438604827 175.9547275111545,227.68051479634596 175.8735202983371,227.99770231166622 175.90058936929563,228.37832599109242 175.9817965820548,228.62150146601925 176.13518798403675,228.85410353635962 176.270533338713,228.92811317157611 176.42392474063672,229.16071452284086 176.54122404794907,229.24529669714684 177.17283570300788,229.6047701333082 177.50668757787207,229.73164279972116 177.58789479063125,229.81622448717826 177.7683552635135,229.91137879934104 177.92174666549545,230.0382510735726 178.31875970581314,230.60917429935944 178.372897847672,230.7677635011205 178.39094389491947,231.0109331180065 178.3097366821603,231.40211777257355 178.11123016197234,231.9307432331625 177.98490783094894,232.13162016951537 177.86760852357838,232.25848960392614 177.29013501037844,232.64966933864343 176.47806288249558,233.27343923786248 176.28857938596047,233.47431345523364 176.14421100763138,233.71747643729032 176.09007286577253,233.9289220241044 175.77426703827223,234.59497267668485 175.50357632897794,235.28216310730932 175.2870237614843,235.6521867521078 175.0975402649492,235.88477233669255 174.96219491027296,236.01163697116863 174.6554121064255,236.2019336187077 174.33058325527236,236.32879784758552 174.0689155695727,236.39222990119742 173.02224482694874,236.41337391006527 172.52597852650797,236.4662339124916 172.1740806044545,236.43451791440748 171.83120570593746,236.34994186995755 171.56051499664318,236.15964550637 171.40712359471945,235.99049287668458 171.28080126369605,235.69447508078156 171.21764009818435,235.37731217638793 170.9559724124847,234.79584421799518 170.80258101056097,234.5421116771613 170.4506830885075,234.0769336666781 170.34240680473158,233.87606066964508 170.134877260949,233.61175347484095 169.8190714333905,233.13599874954525 169.74688724428415,233.08313697255653 169.51228862948483,232.72367614193354 169.34085118031362,232.55451765324688 168.82653883262537,232.19505490701704 168.70021650160197,232.02589551689016 168.5378020760254,231.6664308550171 168.42050276865484,231.53956066335377 168.24906531936722,231.40211777257355 168.00544368103147,231.2963923423813 167.7167069244315,231.2752472428183 167.17532550584292,231.3386825279813 167.1933715530904,231.3175374374332 167.2114176003961,231.34925507155276 167.1482564348844,231.34925507155276 167.10314131667838,231.38097269555874 167.20239457674325,231.35982761398918 166.98584200930782,231.41269030938565 166.4354375670082,231.4444079130917 166.20986197591992,231.49727056336997 165.2353754224605,231.87788081388862 165.08198402047856,231.90959826883045 164.5225565545843,231.96246067120956 164.2518658452318,232.04704045642575 163.92703699413687,232.20562735931162 163.14203393709613,232.71310374483437 162.79013601498445,232.89283434209938 162.55553740024334,232.95626859281765 162.36605390370823,232.96684096399258 161.98708691069623,232.8716895828693 161.62616596493172,232.58623489185993 161.16599175910233,232.34306913674664 160.54340312769637,231.8673083266258 160.41708079667296,231.62414080915187 160.2366203237907,231.04265085018415 159.97495263809105,230.70432785084267 159.7764461179613,230.52459328810073 159.415525172255,230.37657634479547 159.14483446296072,230.18626852172747 158.94632794271456,229.96424226665113 158.87414375360822,229.81622448717826 158.75684444623766,229.68935192894423 158.5763839734136,229.07613227642287 158.63052211521426,228.72722974742646 158.66661420976743,228.37832599109242 158.63052211521426,228.166868571745 158.63052211521426,227.93426488976547 158.58540699700825,227.83910868079693 158.54029187880224,227.81796284417942 158.50419978419086,227.83910868079693 158.18839395669056,227.81796284417942 157.85454208188457,227.9236919821269 157.53873625432607,228.10343125803774 157.24097647413146,228.30431594559923 156.88005552836694,228.66379279210378 156.681549008179,228.90696756713442 156.39281225163722,229.34045155705098 156.29355899145594,229.4673245615486 156.20332875510212,229.53076100295584 156.20332875510212,229.49904278734903 156.1130985186319,229.61534286170354 155.75217757286737,230.23913184252888 155.73413152556168,230.3025677903206 155.51757895812625,230.52459328810073 155.26493429607945,230.86291690043436 155.13861196511425,231.08494114393397 154.64234566467348,231.62414080915187 154.06487215153174,232.0364679872364 153.6588360875612,232.22677226058295 152.95504024333786,232.66024174248741 152.57607325032586,232.8611172015735 151.96250764251454,233.2628668993857 151.50233343668515,233.6223257761303 151.27675784559688,233.7597655906793 150.9880210890551,233.99235561225214 150.93388294713804,234.08750591843273 150.82560666342033,234.12979491410806 150.4195705994498,234.41524516337086 150.4015245521441,234.4786784405369 150.45566269400297,234.5421116771613 150.4827317649615,234.6372614560387 150.44663967040833,234.53153947388637 150.3564094339381,234.4786784405369 150.32031733938493,234.4892506494798 150.22106407932006,234.60554487322224 150.07669570099097,234.70069459125807 149.98646546457894,234.79584421799518 149.33680776221445,235.27159098290576 148.9488177455496,235.59932631593256 148.78640331991483,235.67333091868932 148.6961730835028,235.74733546625794 148.6510579652968,235.82133995860204 148.48864353972021,235.87420027649205 148.34427516139112,236.02220901674445 147.99237723927945,236.26536575343926 147.92921607376775,236.36051387947373 147.8119167663972,236.40280190618796 147.40588070248486,236.71996153207874 145.962196919485,238.02030539750558 145.32156224077335,238.67575682016468 144.39219080546172,239.53206586433953 141.58603045222117,242.3335191211154 141.45068509760313,242.5026609366396 141.09878717549145,242.7880870965455 140.97246484446805,242.94665683060884 139.94384014909156,243.96149712784245 139.68217246345012,244.31034608283517 139.42050477780867,244.5640536433857 139.16786011576187,244.9129004800052 138.95130754832644,245.11375113263057 138.84303126460873,245.30403032326285 138.65354776801541,245.4943091490204 138.1031433258322,246.22370793438313 137.85952168738004,246.45626873871515 137.44446259975666,246.98481399432785 135.94664067495614,248.7924174914515 135.42330530361505,249.38437405304285 135.08043040515622,249.82833915707306 134.75560155400308,250.3040138502838 134.1510589698446,251.25535639700684 134.06082873343257,251.44562381200376 133.66381569305668,252.03756454826362 133.5014012674801,252.3652445091284 133.52847033838043,252.47094749152166 133.48335522017442,252.54493951220502 133.57358545664465,252.59779092180543 133.46530917292694,252.69292338811647 133.33898684190353,253.0206011852788 133.23071055818582,253.1157332462899 133.13145729812095,253.28485668526264 133.1224342744681,253.31656729798124 133.1404803217738,253.31656729798124 132.96001984889153,253.53854130334366 132.8246744942153,253.81336557451868 132.59909890312701,254.13046955726895 132.45473052479792,254.09875920456398 132.43668447755044,254.15160978672793 132.13892469723942,254.64840388361335 131.59754327865085,255.50457510884007 131.56145118409768,255.61027474793082 131.28173745115055,256.0119323499821 131.04713883640943,256.44529793986294 130.7042639379506,257.1429068662692 130.60501067788573,257.42829092306783 130.41552718129242,257.829941168573 129.76586947904434,259.4893736390586 129.57638598250924,260.0389884692122 129.55833993520355,260.49347535710695 129.65759319526842,260.9056825955413 129.6756392425741,261.2121945607287 129.66661621892126,261.2861800656974 129.64857017167378,261.2650413556112 129.66661621892126,261.2861800656974 129.60345505340956,261.6561067634684 129.54029388789786,261.8463542427198 129.45006365148583,261.98375497324014 129.441040627833,262.1000169812396 129.16132689488586,262.4699406464424 128.8545440910384,262.74474019110494 128.49362314521568,263.1780763891875 128.15074824681506,263.9284833802958 128.06051801034482,263.9601905930467 128.00637986848596,264.0130359251634 127.97931079752743,264.15043365697784 128.0154028921388,264.1821407988464 128.04247196309734,264.2561240905052 127.95224172662711,264.3723834374323 127.88005753746256,264.3935214858866 127.79885032464517,264.64717771628784 127.56425170990406,265.0065229332977 127.36574518977432,265.1861950540624 127.16723866964458,265.3024533118951 126.89654796029208,265.3764357687105 126.64390329830348,265.3552979295491 126.51758096728008,265.3658668496646 126.2468902579858,265.3235911623269 125.44384115369758,265.12278140152193 125.24533463350963,265.01709189057874 125.0919432315277,264.9853850153595 124.84832159319194,264.76343660528073 124.68590716755716,264.63660871961474 124.49642367113847,264.53091869111086 124.29791715089232,264.4886426482335 124.0813645835151,264.49921166063723 123.86481201602146,264.552056705812 123.57607525942149,264.83741946375085 123.44975292839808,265.01709189057874 123.32343059737468,265.313022237664 123.22417733730981,265.4187114335873 123.07980895903893,265.76748498185043 122.88130243885098,265.97886229361757 122.70986498962156,266.0 122.45722032763297,265.89431142290414 122.18652961828047,265.58781391298544 122.06020728731528,265.3447290082622 121.97900007449789,265.24960866612673 121.72635541245108,265.0699366601184 121.40152656129794,264.95367812999757 121.19399701745715,264.83741946375085 120.32778674771544,264.02360498820053 120.13830325118033,263.9284833802958 119.77738230541581,263.67482531368296 119.78640532906866,263.6642562134948 119.83152044727467,263.67482531368296 119.81347439996898,263.6959635106323 119.84054347092751,263.6853944127215" stroke="#4dd2ff" stroke-linecap="round" stroke-linejoin="round" stroke-width="0.5"><title>2022-09-23 14.1km</title></polyline></svg>